<svg width="512" height="512" version="1.1" xmlns="http://www.w3.org/2000/svg" desc="Created with imagetracer.js version 1.2.6" ><path fill="rgb(0,0,0)" stroke="rgb(0,0,0)" stroke-width="1" opacity="0" d="M 0 0 L 137 0.5 L 128.5 1 L 109.5 5 L 85.5 14 Q 58.2 27.2 39 48.5 Q 24 64.5 14 85.5 L 5 109.5 L 1 128.5 L 0.5 137 L 0 0 Z " /><path fill="rgb(0,0,0)" stroke="rgb(0,0,0)" stroke-width="1" opacity="0" d="M 375.5 0 L 512 0 L 512 136.5 L 511 136.5 L 511 128.5 L 507 109.5 L 498 85.5 Q 484.6 58.4 463.5 39 Q 446.5 23.5 424.5 13 L 402.5 5 L 383.5 1 L 375.5 1 L 375.5 0 Z " /><path fill="rgb(0,0,0)" stroke="rgb(0,0,0)" stroke-width="1" opacity="0" d="M 140.5 32 L 371.5 32 Q 373.3 34.8 379.5 33 L 393.5 36 L 418.5 46 Q 438.7 57.3 453 74.5 Q 464.8 88.2 472 106.5 L 478 126.5 L 479 140.5 L 480 141.5 L 480 370.5 L 476 393.5 L 466 418.5 Q 454.7 438.7 437.5 453 Q 425.5 463 410.5 470 L 393.5 476 L 370.5 480 L 141.5 480 L 118.5 476 L 93.5 466 Q 73.3 454.7 59 437.5 Q 47.2 423.8 40 405.5 L 34 385.5 L 33 372.5 L 32 371.5 L 32 140.5 L 36 118.5 L 46 93.5 Q 57.3 73.3 74.5 59 Q 88.2 47.2 106.5 40 L 126.5 34 L 139.5 33 L 140.5 32 Z M 117 127 L 111 130 Q 105 134 104 142 L 106 151 L 119 165 L 108 177 L 104 186 Q 104 192 107 197 L 117 203 L 128 202 L 143 188 L 155 200 L 161 203 Q 170 204 175 200 Q 180 196 181 189 L 179 180 L 166 166 L 177 154 L 180 149 L 181 144 L 178 134 L 169 127 L 161 127 L 155 130 L 143 142 L 131 130 L 125 127 L 117 127 Z M 338 127 L 333 129 Q 327 132 325 140 L 326 150 L 340 165 L 327 179 L 325 184 Q 324 192 327 196 L 337 203 Q 346 205 350 201 L 363 188 L 377 201 L 382 203 L 390 203 L 397 199 L 401 192 Q 403 183 399 179 L 386 166 L 399 152 L 401 147 Q 402 138 399 135 Q 396 129 389 127 Q 381 126 377 129 L 364 142 L 350 129 Q 346 126 338 127 Z M 245 287 L 244 288 L 237 288 L 227 290 L 209 296 Q 191 303 178 315 Q 156 332 144 360 Q 143 368 146 372 Q 150 377 158 379 L 163 379 L 170 376 L 187 351 Q 198 338 213 330 L 226 324 L 249 319 L 272 320 L 287 324 Q 304 331 317 342 Q 331 354 339 373 Q 343 377 350 379 L 356 379 L 362 376 L 368 367 L 367 357 L 351 332 Q 332 309 304 296 L 276 288 Q 269 290 268 287 L 245 287 Z " /><path fill="rgb(0,0,0)" stroke="rgb(0,0,0)" stroke-width="1" opacity="0" d="M 0.5 375 L 1 383.5 L 5 402.5 L 14 426.5 Q 27.4 453.6 48.5 473 Q 64.7 487.8 85.5 498 L 109.5 507 L 128.5 511 L 137 511.5 L 0 512 L 0.5 375 Z " /><path fill="rgb(0,0,0)" stroke="rgb(0,0,0)" stroke-width="1" opacity="0" d="M 511.5 375 L 512 512 L 375 511.5 L 383.5 511 L 402.5 507 L 424.5 499 Q 452.9 485.4 473 463.5 Q 487.8 447.3 498 426.5 L 507 402.5 L 511 383.5 L 511.5 375 Z " /><path fill="rgb(0,0,0)" stroke="rgb(0,0,0)" stroke-width="1" opacity="0.792156862745098" d="M 137.5 0 L 146 0.5 L 137.5 1 L 137.5 0 Z " /><path fill="rgb(0,0,0)" stroke="rgb(0,0,0)" stroke-width="1" opacity="0.792156862745098" d="M 366.5 0 L 375 0.5 L 366.5 1 L 366.5 0 Z " /><path fill="rgb(0,0,0)" stroke="rgb(0,0,0)" stroke-width="1" opacity="0.792156862745098" d="M 128.5 1 L 132 1.5 L 128.5 2 L 128.5 1 Z " /><path fill="rgb(0,0,0)" stroke="rgb(0,0,0)" stroke-width="1" opacity="0.792156862745098" d="M 380.5 1 L 384 1.5 L 380.5 2 L 380.5 1 Z " /><path fill="rgb(0,0,0)" stroke="rgb(0,0,0)" stroke-width="1" opacity="0.792156862745098" d="M 122.5 2 L 125 2.5 L 122.5 3 L 122.5 2 Z " /><path fill="rgb(0,0,0)" stroke="rgb(0,0,0)" stroke-width="1" opacity="0.792156862745098" d="M 387.5 2 L 390 2.5 L 387.5 3 L 387.5 2 Z " /><path fill="rgb(0,0,0)" stroke="rgb(0,0,0)" stroke-width="1" opacity="0.792156862745098" d="M 79.5 17 L 78.5 19 L 79.5 17 Z " /><path fill="rgb(0,0,0)" stroke="rgb(0,0,0)" stroke-width="1" opacity="0.792156862745098" d="M 432.5 17 L 433.5 19 L 432.5 17 Z " /><path fill="rgb(0,0,0)" stroke="rgb(0,0,0)" stroke-width="1" opacity="0.792156862745098" d="M 72.5 21 L 71.5 23 L 72.5 21 Z " /><path fill="rgb(0,0,0)" stroke="rgb(0,0,0)" stroke-width="1" opacity="0.792156862745098" d="M 439.5 21 L 440.5 23 L 439.5 21 Z " /><path fill="rgb(0,0,0)" stroke="rgb(0,0,0)" stroke-width="1" opacity="0.792156862745098" d="M 69.5 23 L 68.5 25 L 69.5 23 Z " /><path fill="rgb(0,0,0)" stroke="rgb(0,0,0)" stroke-width="1" opacity="0.792156862745098" d="M 442.5 23 L 443.5 25 L 442.5 23 Z " /><path fill="rgb(0,0,0)" stroke="rgb(0,0,0)" stroke-width="1" opacity="0.792156862745098" d="M 66.5 25 L 65.5 27 L 66.5 25 Z " /><path fill="rgb(0,0,0)" stroke="rgb(0,0,0)" stroke-width="1" opacity="0.792156862745098" d="M 445.5 25 L 446.5 27 L 445.5 25 Z " /><path fill="rgb(0,0,0)" stroke="rgb(0,0,0)" stroke-width="1" opacity="0.792156862745098" d="M 63.5 27 L 62.5 29 L 63.5 27 Z " /><path fill="rgb(0,0,0)" stroke="rgb(0,0,0)" stroke-width="1" opacity="0.792156862745098" d="M 448.5 27 L 449.5 29 L 448.5 27 Z " /><path fill="rgb(0,0,0)" stroke="rgb(0,0,0)" stroke-width="1" opacity="0.792156862745098" d="M 60.5 29 L 58.5 32 L 60.5 29 Z " /><path fill="rgb(0,0,0)" stroke="rgb(0,0,0)" stroke-width="1" opacity="0.792156862745098" d="M 452.5 30 L 453.5 32 L 452.5 30 Z " /><path fill="rgb(0,0,0)" stroke="rgb(0,0,0)" stroke-width="1" opacity="0.792156862745098" d="M 135.5 32 L 140 32.5 L 135.5 33 L 135.5 32 Z " /><path fill="rgb(0,0,0)" stroke="rgb(0,0,0)" stroke-width="1" opacity="0.792156862745098" d="M 372.5 32 L 376 32.5 L 372.5 33 L 372.5 32 Z " /><path fill="rgb(0,0,0)" stroke="rgb(0,0,0)" stroke-width="1" opacity="0.792156862745098" d="M 55.5 33 L 52.5 37 L 55.5 33 Z " /><path fill="rgb(0,0,0)" stroke="rgb(0,0,0)" stroke-width="1" opacity="0.792156862745098" d="M 129.5 33 L 132 33.5 L 129.5 34 L 129.5 33 Z " /><path fill="rgb(0,0,0)" stroke="rgb(0,0,0)" stroke-width="1" opacity="0.792156862745098" d="M 380.5 33 L 383 33.5 L 380.5 34 L 380.5 33 Z " /><path fill="rgb(0,0,0)" stroke="rgb(0,0,0)" stroke-width="1" opacity="0.792156862745098" d="M 456.5 33 L 459.5 37 L 456.5 33 Z " /><path fill="rgb(0,0,0)" stroke="rgb(0,0,0)" stroke-width="1" opacity="0.792156862745098" d="M 48.5 39 L 39.5 49 L 48.5 39 Z " /><path fill="rgb(0,0,0)" stroke="rgb(0,0,0)" stroke-width="1" opacity="0.792156862745098" d="M 463.5 39 L 472.5 49 L 463.5 39 Z " /><path fill="rgb(0,0,0)" stroke="rgb(0,0,0)" stroke-width="1" opacity="0.792156862745098" d="M 92.5 46 L 91.5 48 L 92.5 46 Z " /><path fill="rgb(0,0,0)" stroke="rgb(0,0,0)" stroke-width="1" opacity="0.792156862745098" d="M 87.5 49 L 86.5 51 L 87.5 49 Z " /><path fill="rgb(0,0,0)" stroke="rgb(0,0,0)" stroke-width="1" opacity="0.792156862745098" d="M 424.5 49 L 425.5 51 L 424.5 49 Z " /><path fill="rgb(0,0,0)" stroke="rgb(0,0,0)" stroke-width="1" opacity="0.792156862745098" d="M 84.5 51 L 83.5 53 L 84.5 51 Z " /><path fill="rgb(0,0,0)" stroke="rgb(0,0,0)" stroke-width="1" opacity="0.792156862745098" d="M 427.5 51 L 428.5 53 L 427.5 51 Z " /><path fill="rgb(0,0,0)" stroke="rgb(0,0,0)" stroke-width="1" opacity="0.792156862745098" d="M 36.5 52 L 33.5 56 L 36.5 52 Z " /><path fill="rgb(0,0,0)" stroke="rgb(0,0,0)" stroke-width="1" opacity="0.792156862745098" d="M 475.5 52 L 478.5 56 L 475.5 52 Z " /><path fill="rgb(0,0,0)" stroke="rgb(0,0,0)" stroke-width="1" opacity="0.792156862745098" d="M 81.5 53 L 80.5 55 L 81.5 53 Z " /><path fill="rgb(0,0,0)" stroke="rgb(0,0,0)" stroke-width="1" opacity="0.792156862745098" d="M 430.5 53 L 431.5 55 L 430.5 53 Z " /><path fill="rgb(0,0,0)" stroke="rgb(0,0,0)" stroke-width="1" opacity="0.792156862745098" d="M 77.5 56 L 75.5 59 L 77.5 56 Z " /><path fill="rgb(0,0,0)" stroke="rgb(0,0,0)" stroke-width="1" opacity="0.792156862745098" d="M 434.5 56 L 436.5 59 L 434.5 56 Z " /><path fill="rgb(0,0,0)" stroke="rgb(0,0,0)" stroke-width="1" opacity="0.792156862745098" d="M 31.5 58 L 29.5 61 L 31.5 58 Z " /><path fill="rgb(0,0,0)" stroke="rgb(0,0,0)" stroke-width="1" opacity="0.792156862745098" d="M 480.5 58 L 481.5 60 L 480.5 58 Z " /><path fill="rgb(0,0,0)" stroke="rgb(0,0,0)" stroke-width="1" opacity="0.792156862745098" d="M 71.5 61 L 61.5 72 L 71.5 61 Z " /><path fill="rgb(0,0,0)" stroke="rgb(0,0,0)" stroke-width="1" opacity="0.792156862745098" d="M 440.5 61 L 450.5 72 L 440.5 61 Z " /><path fill="rgb(0,0,0)" stroke="rgb(0,0,0)" stroke-width="1" opacity="0.792156862745098" d="M 28.5 62 L 27.5 64 L 28.5 62 Z " /><path fill="rgb(0,0,0)" stroke="rgb(0,0,0)" stroke-width="1" opacity="0.792156862745098" d="M 483.5 62 L 484.5 64 L 483.5 62 Z " /><path fill="rgb(0,0,0)" stroke="rgb(0,0,0)" stroke-width="1" opacity="0.792156862745098" d="M 26.5 65 L 25.5 67 L 26.5 65 Z " /><path fill="rgb(0,0,0)" stroke="rgb(0,0,0)" stroke-width="1" opacity="0.792156862745098" d="M 485.5 65 L 486.5 67 L 485.5 65 Z " /><path fill="rgb(0,0,0)" stroke="rgb(0,0,0)" stroke-width="1" opacity="0.792156862745098" d="M 24.5 68 L 23.5 70 L 24.5 68 Z " /><path fill="rgb(0,0,0)" stroke="rgb(0,0,0)" stroke-width="1" opacity="0.792156862745098" d="M 487.5 68 L 488.5 70 L 487.5 68 Z " /><path fill="rgb(0,0,0)" stroke="rgb(0,0,0)" stroke-width="1" opacity="0.792156862745098" d="M 22.5 71 L 21.5 73 L 22.5 71 Z " /><path fill="rgb(0,0,0)" stroke="rgb(0,0,0)" stroke-width="1" opacity="0.792156862745098" d="M 489.5 71 L 490.5 73 L 489.5 71 Z " /><path fill="rgb(0,0,0)" stroke="rgb(0,0,0)" stroke-width="1" opacity="0.792156862745098" d="M 58.5 75 L 56.5 78 L 58.5 75 Z " /><path fill="rgb(0,0,0)" stroke="rgb(0,0,0)" stroke-width="1" opacity="0.792156862745098" d="M 453.5 75 L 455.5 78 L 453.5 75 Z " /><path fill="rgb(0,0,0)" stroke="rgb(0,0,0)" stroke-width="1" opacity="0.792156862745098" d="M 18.5 78 L 17.5 80 L 18.5 78 Z " /><path fill="rgb(0,0,0)" stroke="rgb(0,0,0)" stroke-width="1" opacity="0.792156862745098" d="M 493.5 78 L 494.5 80 L 493.5 78 Z " /><path fill="rgb(0,0,0)" stroke="rgb(0,0,0)" stroke-width="1" opacity="0.792156862745098" d="M 54.5 80 L 53.5 82 L 54.5 80 Z " /><path fill="rgb(0,0,0)" stroke="rgb(0,0,0)" stroke-width="1" opacity="0.792156862745098" d="M 457.5 80 L 458.5 82 L 457.5 80 Z " /><path fill="rgb(0,0,0)" stroke="rgb(0,0,0)" stroke-width="1" opacity="0.792156862745098" d="M 52.5 83 L 51.5 85 L 52.5 83 Z " /><path fill="rgb(0,0,0)" stroke="rgb(0,0,0)" stroke-width="1" opacity="0.792156862745098" d="M 459.5 83 L 460.5 85 L 459.5 83 Z " /><path fill="rgb(0,0,0)" stroke="rgb(0,0,0)" stroke-width="1" opacity="0.792156862745098" d="M 50.5 86 L 49.5 88 L 50.5 86 Z " /><path fill="rgb(0,0,0)" stroke="rgb(0,0,0)" stroke-width="1" opacity="0.792156862745098" d="M 461.5 86 L 462.5 88 L 461.5 86 Z " /><path fill="rgb(0,0,0)" stroke="rgb(0,0,0)" stroke-width="1" opacity="0.792156862745098" d="M 47.5 91 L 46.5 93 L 47.5 91 Z " /><path fill="rgb(0,0,0)" stroke="rgb(0,0,0)" stroke-width="1" opacity="0.792156862745098" d="M 2.5 122 L 3 124.5 L 2 124.5 L 2.5 122 Z " /><path fill="rgb(0,0,0)" stroke="rgb(0,0,0)" stroke-width="1" opacity="0.792156862745098" d="M 509.5 122 L 510 124.5 L 509 124.5 L 509.5 122 Z " /><path fill="rgb(0,0,0)" stroke="rgb(0,0,0)" stroke-width="1" opacity="0.792156862745098" d="M 116.5 127 L 119 127.5 L 116.5 128 L 116.5 127 Z " /><path fill="rgb(0,0,0)" stroke="rgb(0,0,0)" stroke-width="1" opacity="0.792156862745098" d="M 122.5 127 L 125 127.5 L 122.5 128 L 122.5 127 Z " /><path fill="rgb(0,0,0)" stroke="rgb(0,0,0)" stroke-width="1" opacity="0.792156862745098" d="M 160.5 127 L 163 127.5 L 160.5 128 L 160.5 127 Z " /><path fill="rgb(0,0,0)" stroke="rgb(0,0,0)" stroke-width="1" opacity="0.792156862745098" d="M 166.5 127 L 169 127.5 L 166.5 128 L 166.5 127 Z " /><path fill="rgb(0,0,0)" stroke="rgb(0,0,0)" stroke-width="1" opacity="0.792156862745098" d="M 381.5 127 L 384 127.5 L 381.5 128 L 381.5 127 Z " /><path fill="rgb(0,0,0)" stroke="rgb(0,0,0)" stroke-width="1" opacity="0.792156862745098" d="M 1.5 128 L 2 131.5 L 1 131.5 L 1.5 128 Z " /><path fill="rgb(0,0,0)" stroke="rgb(0,0,0)" stroke-width="1" opacity="0.792156862745098" d="M 510.5 128 L 511 131.5 L 510 131.5 L 510.5 128 Z " /><path fill="rgb(0,0,0)" stroke="rgb(0,0,0)" stroke-width="1" opacity="0.792156862745098" d="M 33.5 129 L 34 131.5 L 33 131.5 L 33.5 129 Z " /><path fill="rgb(0,0,0)" stroke="rgb(0,0,0)" stroke-width="1" opacity="0.792156862745098" d="M 332.5 129 L 331.5 131 L 332.5 129 Z " /><path fill="rgb(0,0,0)" stroke="rgb(0,0,0)" stroke-width="1" opacity="0.792156862745098" d="M 376.5 129 L 364.5 142 L 376.5 129 Z " /><path fill="rgb(0,0,0)" stroke="rgb(0,0,0)" stroke-width="1" opacity="0.792156862745098" d="M 478.5 129 L 479 131.5 L 478 131.5 L 478.5 129 Z " /><path fill="rgb(0,0,0)" stroke="rgb(0,0,0)" stroke-width="1" opacity="0.792156862745098" d="M 110.5 130 L 107.5 134 L 110.5 130 Z " /><path fill="rgb(0,0,0)" stroke="rgb(0,0,0)" stroke-width="1" opacity="0.792156862745098" d="M 130.5 130 L 142.5 142 L 155 130.5 L 142.5 143 L 130.5 130 Z " /><path fill="rgb(0,0,0)" stroke="rgb(0,0,0)" stroke-width="1" opacity="0.792156862745098" d="M 174.5 130 L 177.5 134 L 174.5 130 Z " /><path fill="rgb(0,0,0)" stroke="rgb(0,0,0)" stroke-width="1" opacity="0.792156862745098" d="M 329.5 132 L 327.5 135 L 329.5 132 Z " /><path fill="rgb(0,0,0)" stroke="rgb(0,0,0)" stroke-width="1" opacity="0.792156862745098" d="M 32.5 135 L 33 139.5 L 32 139.5 L 32.5 135 Z " /><path fill="rgb(0,0,0)" stroke="rgb(0,0,0)" stroke-width="1" opacity="0.792156862745098" d="M 479.5 136 L 480 140.5 L 479 140.5 L 479.5 136 Z " /><path fill="rgb(0,0,0)" stroke="rgb(0,0,0)" stroke-width="1" opacity="0.792156862745098" d="M 0.5 137 L 1 145.5 L 0 145.5 L 0.5 137 Z " /><path fill="rgb(0,0,0)" stroke="rgb(0,0,0)" stroke-width="1" opacity="0.792156862745098" d="M 511.5 137 L 512 145.5 L 511 145.5 L 511.5 137 Z " /><path fill="rgb(0,0,0)" stroke="rgb(0,0,0)" stroke-width="1" opacity="0.792156862745098" d="M 325.5 139 L 326 146.5 L 325 146.5 L 325.5 139 Z " /><path fill="rgb(0,0,0)" stroke="rgb(0,0,0)" stroke-width="1" opacity="0.792156862745098" d="M 104.5 141 L 105 144.5 L 104 144.5 L 104.5 141 Z " /><path fill="rgb(0,0,0)" stroke="rgb(0,0,0)" stroke-width="1" opacity="0.792156862745098" d="M 180.5 141 L 181 143.5 L 180 143.5 L 180.5 141 Z " /><path fill="rgb(0,0,0)" stroke="rgb(0,0,0)" stroke-width="1" opacity="0.792156862745098" d="M 326.5 148 L 328 150.5 L 326 149.5 L 326.5 148 Z " /><path fill="rgb(0,0,0)" stroke="rgb(0,0,0)" stroke-width="1" opacity="0.792156862745098" d="M 398.5 151 L 397.5 153 L 398.5 151 Z " /><path fill="rgb(0,0,0)" stroke="rgb(0,0,0)" stroke-width="1" opacity="0.792156862745098" d="M 328.5 152 L 341 165.5 L 327 178.5 L 340 164.5 L 328.5 152 Z " /><path fill="rgb(0,0,0)" stroke="rgb(0,0,0)" stroke-width="1" opacity="0.792156862745098" d="M 108.5 153 L 120 165.5 L 108 176.5 L 119 164.5 L 108.5 153 Z " /><path fill="rgb(0,0,0)" stroke="rgb(0,0,0)" stroke-width="1" opacity="0.792156862745098" d="M 176.5 153 L 166 164.5 L 177 176.5 L 165 165.5 L 176.5 153 Z " /><path fill="rgb(0,0,0)" stroke="rgb(0,0,0)" stroke-width="1" opacity="0.792156862745098" d="M 325.5 183 L 326 185.5 L 325 185.5 L 325.5 183 Z " /><path fill="rgb(0,0,0)" stroke="rgb(0,0,0)" stroke-width="1" opacity="0.792156862745098" d="M 104.5 185 L 105 188.5 L 104 188.5 L 104.5 185 Z " /><path fill="rgb(0,0,0)" stroke="rgb(0,0,0)" stroke-width="1" opacity="0.792156862745098" d="M 180.5 185 L 181 188.5 L 180 188.5 L 180.5 185 Z " /><path fill="rgb(0,0,0)" stroke="rgb(0,0,0)" stroke-width="1" opacity="0.792156862745098" d="M 142.5 187 L 154.5 200 L 142.5 188 L 130 199.5 L 142.5 187 Z " /><path fill="rgb(0,0,0)" stroke="rgb(0,0,0)" stroke-width="1" opacity="0.792156862745098" d="M 363.5 187 L 376.5 201 L 363.5 187 Z " /><path fill="rgb(0,0,0)" stroke="rgb(0,0,0)" stroke-width="1" opacity="0.792156862745098" d="M 325.5 188 L 326 190.5 L 325 190.5 L 325.5 188 Z " /><path fill="rgb(0,0,0)" stroke="rgb(0,0,0)" stroke-width="1" opacity="0.792156862745098" d="M 399.5 193 L 400 194.5 L 398 195.5 L 399.5 193 Z " /><path fill="rgb(0,0,0)" stroke="rgb(0,0,0)" stroke-width="1" opacity="0.792156862745098" d="M 327.5 195 L 328.5 197 L 327.5 195 Z " /><path fill="rgb(0,0,0)" stroke="rgb(0,0,0)" stroke-width="1" opacity="0.792156862745098" d="M 107.5 196 L 110.5 200 L 107.5 196 Z " /><path fill="rgb(0,0,0)" stroke="rgb(0,0,0)" stroke-width="1" opacity="0.792156862745098" d="M 177.5 196 L 174.5 200 L 177.5 196 Z " /><path fill="rgb(0,0,0)" stroke="rgb(0,0,0)" stroke-width="1" opacity="0.792156862745098" d="M 397.5 197 L 396.5 199 L 397.5 197 Z " /><path fill="rgb(0,0,0)" stroke="rgb(0,0,0)" stroke-width="1" opacity="0.792156862745098" d="M 331.5 199 L 332.5 201 L 331.5 199 Z " /><path fill="rgb(0,0,0)" stroke="rgb(0,0,0)" stroke-width="1" opacity="0.792156862745098" d="M 350.5 199 L 349.5 201 L 350.5 199 Z " /><path fill="rgb(0,0,0)" stroke="rgb(0,0,0)" stroke-width="1" opacity="0.792156862745098" d="M 128.5 200 L 127.5 202 L 126 201.5 L 128.5 200 Z " /><path fill="rgb(0,0,0)" stroke="rgb(0,0,0)" stroke-width="1" opacity="0.792156862745098" d="M 156.5 200 L 159 201.5 L 157.5 202 L 156.5 200 Z " /><path fill="rgb(0,0,0)" stroke="rgb(0,0,0)" stroke-width="1" opacity="0.792156862745098" d="M 336.5 202 L 339 202.5 L 336.5 203 L 336.5 202 Z " /><path fill="rgb(0,0,0)" stroke="rgb(0,0,0)" stroke-width="1" opacity="0.792156862745098" d="M 343.5 202 L 346 202.5 L 343.5 203 L 343.5 202 Z " /><path fill="rgb(0,0,0)" stroke="rgb(0,0,0)" stroke-width="1" opacity="0.792156862745098" d="M 244.5 287 L 251 287.5 L 244.5 288 L 244.5 287 Z " /><path fill="rgb(0,0,0)" stroke="rgb(0,0,0)" stroke-width="1" opacity="0.792156862745098" d="M 261.5 287 L 268 287.5 L 261.5 288 L 261.5 287 Z " /><path fill="rgb(0,0,0)" stroke="rgb(0,0,0)" stroke-width="1" opacity="0.792156862745098" d="M 236.5 288 L 240 288.5 L 236.5 289 L 236.5 288 Z " /><path fill="rgb(0,0,0)" stroke="rgb(0,0,0)" stroke-width="1" opacity="0.792156862745098" d="M 272.5 288 L 276 288.5 L 272.5 289 L 272.5 288 Z " /><path fill="rgb(0,0,0)" stroke="rgb(0,0,0)" stroke-width="1" opacity="0.792156862745098" d="M 226.5 290 L 229 290.5 L 226.5 291 L 226.5 290 Z " /><path fill="rgb(0,0,0)" stroke="rgb(0,0,0)" stroke-width="1" opacity="0.792156862745098" d="M 283.5 290 L 286 290.5 L 283.5 291 L 283.5 290 Z " /><path fill="rgb(0,0,0)" stroke="rgb(0,0,0)" stroke-width="1" opacity="0.792156862745098" d="M 194.5 303 L 193.5 305 L 194.5 303 Z " /><path fill="rgb(0,0,0)" stroke="rgb(0,0,0)" stroke-width="1" opacity="0.792156862745098" d="M 317.5 303 L 318.5 305 L 317.5 303 Z " /><path fill="rgb(0,0,0)" stroke="rgb(0,0,0)" stroke-width="1" opacity="0.792156862745098" d="M 188.5 307 L 187.5 309 L 188.5 307 Z " /><path fill="rgb(0,0,0)" stroke="rgb(0,0,0)" stroke-width="1" opacity="0.792156862745098" d="M 185.5 309 L 184.5 311 L 185.5 309 Z " /><path fill="rgb(0,0,0)" stroke="rgb(0,0,0)" stroke-width="1" opacity="0.792156862745098" d="M 326.5 309 L 327.5 311 L 326.5 309 Z " /><path fill="rgb(0,0,0)" stroke="rgb(0,0,0)" stroke-width="1" opacity="0.792156862745098" d="M 182.5 311 L 180.5 314 L 182.5 311 Z " /><path fill="rgb(0,0,0)" stroke="rgb(0,0,0)" stroke-width="1" opacity="0.792156862745098" d="M 329.5 311 L 331.5 314 L 329.5 311 Z " /><path fill="rgb(0,0,0)" stroke="rgb(0,0,0)" stroke-width="1" opacity="0.792156862745098" d="M 177.5 315 L 173.5 320 L 177.5 315 Z " /><path fill="rgb(0,0,0)" stroke="rgb(0,0,0)" stroke-width="1" opacity="0.792156862745098" d="M 334.5 315 L 338.5 320 L 334.5 315 Z " /><path fill="rgb(0,0,0)" stroke="rgb(0,0,0)" stroke-width="1" opacity="0.792156862745098" d="M 243.5 319 L 248 319.5 L 243.5 320 L 243.5 319 Z " /><path fill="rgb(0,0,0)" stroke="rgb(0,0,0)" stroke-width="1" opacity="0.792156862745098" d="M 264.5 319 L 268 319.5 L 264.5 320 L 264.5 319 Z " /><path fill="rgb(0,0,0)" stroke="rgb(0,0,0)" stroke-width="1" opacity="0.792156862745098" d="M 238.5 320 L 241 320.5 L 238.5 321 L 238.5 320 Z " /><path fill="rgb(0,0,0)" stroke="rgb(0,0,0)" stroke-width="1" opacity="0.792156862745098" d="M 346.5 327 L 350.5 332 L 346.5 327 Z " /><path fill="rgb(0,0,0)" stroke="rgb(0,0,0)" stroke-width="1" opacity="0.792156862745098" d="M 164.5 328 L 161.5 332 L 164.5 328 Z " /><path fill="rgb(0,0,0)" stroke="rgb(0,0,0)" stroke-width="1" opacity="0.792156862745098" d="M 211.5 330 L 210.5 332 L 211.5 330 Z " /><path fill="rgb(0,0,0)" stroke="rgb(0,0,0)" stroke-width="1" opacity="0.792156862745098" d="M 300.5 330 L 301.5 332 L 300.5 330 Z " /><path fill="rgb(0,0,0)" stroke="rgb(0,0,0)" stroke-width="1" opacity="0.792156862745098" d="M 206.5 333 L 205.5 335 L 206.5 333 Z " /><path fill="rgb(0,0,0)" stroke="rgb(0,0,0)" stroke-width="1" opacity="0.792156862745098" d="M 305.5 333 L 306.5 335 L 305.5 333 Z " /><path fill="rgb(0,0,0)" stroke="rgb(0,0,0)" stroke-width="1" opacity="0.792156862745098" d="M 352.5 334 L 353.5 336 L 352.5 334 Z " /><path fill="rgb(0,0,0)" stroke="rgb(0,0,0)" stroke-width="1" opacity="0.792156862745098" d="M 158.5 335 L 157.5 337 L 158.5 335 Z " /><path fill="rgb(0,0,0)" stroke="rgb(0,0,0)" stroke-width="1" opacity="0.792156862745098" d="M 203.5 335 L 201.5 338 L 203.5 335 Z " /><path fill="rgb(0,0,0)" stroke="rgb(0,0,0)" stroke-width="1" opacity="0.792156862745098" d="M 308.5 335 L 309.5 337 L 308.5 335 Z " /><path fill="rgb(0,0,0)" stroke="rgb(0,0,0)" stroke-width="1" opacity="0.792156862745098" d="M 156.5 338 L 155.5 340 L 156.5 338 Z " /><path fill="rgb(0,0,0)" stroke="rgb(0,0,0)" stroke-width="1" opacity="0.792156862745098" d="M 199.5 338 L 196.5 342 L 199.5 338 Z " /><path fill="rgb(0,0,0)" stroke="rgb(0,0,0)" stroke-width="1" opacity="0.792156862745098" d="M 312.5 338 L 315.5 342 L 312.5 338 Z " /><path fill="rgb(0,0,0)" stroke="rgb(0,0,0)" stroke-width="1" opacity="0.792156862745098" d="M 355.5 338 L 356.5 340 L 355.5 338 Z " /><path fill="rgb(0,0,0)" stroke="rgb(0,0,0)" stroke-width="1" opacity="0.792156862745098" d="M 152.5 344 L 151.5 346 L 152.5 344 Z " /><path fill="rgb(0,0,0)" stroke="rgb(0,0,0)" stroke-width="1" opacity="0.792156862745098" d="M 359.5 344 L 360.5 346 L 359.5 344 Z " /><path fill="rgb(0,0,0)" stroke="rgb(0,0,0)" stroke-width="1" opacity="0.792156862745098" d="M 150.5 347 L 149.5 349 L 150.5 347 Z " /><path fill="rgb(0,0,0)" stroke="rgb(0,0,0)" stroke-width="1" opacity="0.792156862745098" d="M 361.5 347 L 362.5 349 L 361.5 347 Z " /><path fill="rgb(0,0,0)" stroke="rgb(0,0,0)" stroke-width="1" opacity="0.792156862745098" d="M 186.5 351 L 184.5 354 L 186.5 351 Z " /><path fill="rgb(0,0,0)" stroke="rgb(0,0,0)" stroke-width="1" opacity="0.792156862745098" d="M 325.5 351 L 327.5 354 L 325.5 351 Z " /><path fill="rgb(0,0,0)" stroke="rgb(0,0,0)" stroke-width="1" opacity="0.792156862745098" d="M 182.5 356 L 181.5 358 L 182.5 356 Z " /><path fill="rgb(0,0,0)" stroke="rgb(0,0,0)" stroke-width="1" opacity="0.792156862745098" d="M 329.5 356 L 330.5 358 L 329.5 356 Z " /><path fill="rgb(0,0,0)" stroke="rgb(0,0,0)" stroke-width="1" opacity="0.792156862745098" d="M 331.5 359 L 332.5 361 L 331.5 359 Z " /><path fill="rgb(0,0,0)" stroke="rgb(0,0,0)" stroke-width="1" opacity="0.792156862745098" d="M 367.5 359 L 368 361.5 L 367 361.5 L 367.5 359 Z " /><path fill="rgb(0,0,0)" stroke="rgb(0,0,0)" stroke-width="1" opacity="0.792156862745098" d="M 178.5 362 L 177.5 364 L 178.5 362 Z " /><path fill="rgb(0,0,0)" stroke="rgb(0,0,0)" stroke-width="1" opacity="0.792156862745098" d="M 333.5 362 L 334.5 364 L 333.5 362 Z " /><path fill="rgb(0,0,0)" stroke="rgb(0,0,0)" stroke-width="1" opacity="0.792156862745098" d="M 367.5 364 L 368 366.5 L 367 366.5 L 367.5 364 Z " /><path fill="rgb(0,0,0)" stroke="rgb(0,0,0)" stroke-width="1" opacity="0.792156862745098" d="M 0.5 366 L 1 374.5 L 0 374.5 L 0.5 366 Z " /><path fill="rgb(0,0,0)" stroke="rgb(0,0,0)" stroke-width="1" opacity="0.792156862745098" d="M 511.5 366 L 512 374.5 L 511 374.5 L 511.5 366 Z " /><path fill="rgb(0,0,0)" stroke="rgb(0,0,0)" stroke-width="1" opacity="0.792156862745098" d="M 146.5 371 L 150.5 376 L 146.5 371 Z " /><path fill="rgb(0,0,0)" stroke="rgb(0,0,0)" stroke-width="1" opacity="0.792156862745098" d="M 479.5 371 L 480 375.5 L 479 375.5 L 479.5 371 Z " /><path fill="rgb(0,0,0)" stroke="rgb(0,0,0)" stroke-width="1" opacity="0.792156862745098" d="M 32.5 372 L 33 376.5 L 32 376.5 L 32.5 372 Z " /><path fill="rgb(0,0,0)" stroke="rgb(0,0,0)" stroke-width="1" opacity="0.792156862745098" d="M 172.5 372 L 169.5 376 L 172.5 372 Z " /><path fill="rgb(0,0,0)" stroke="rgb(0,0,0)" stroke-width="1" opacity="0.792156862745098" d="M 339.5 372 L 342.5 376 L 339.5 372 Z " /><path fill="rgb(0,0,0)" stroke="rgb(0,0,0)" stroke-width="1" opacity="0.792156862745098" d="M 364.5 372 L 361.5 376 L 364.5 372 Z " /><path fill="rgb(0,0,0)" stroke="rgb(0,0,0)" stroke-width="1" opacity="0.792156862745098" d="M 157.5 378 L 163 378.5 L 157.5 379 L 157.5 378 Z " /><path fill="rgb(0,0,0)" stroke="rgb(0,0,0)" stroke-width="1" opacity="0.792156862745098" d="M 349.5 378 L 356 378.5 L 349.5 379 L 349.5 378 Z " /><path fill="rgb(0,0,0)" stroke="rgb(0,0,0)" stroke-width="1" opacity="0.792156862745098" d="M 1.5 380 L 2 383.5 L 1 383.5 L 1.5 380 Z " /><path fill="rgb(0,0,0)" stroke="rgb(0,0,0)" stroke-width="1" opacity="0.792156862745098" d="M 33.5 380 L 34 382.5 L 33 382.5 L 33.5 380 Z " /><path fill="rgb(0,0,0)" stroke="rgb(0,0,0)" stroke-width="1" opacity="0.792156862745098" d="M 478.5 380 L 479 382.5 L 478 382.5 L 478.5 380 Z " /><path fill="rgb(0,0,0)" stroke="rgb(0,0,0)" stroke-width="1" opacity="0.792156862745098" d="M 510.5 380 L 511 383.5 L 510 383.5 L 510.5 380 Z " /><path fill="rgb(0,0,0)" stroke="rgb(0,0,0)" stroke-width="1" opacity="0.792156862745098" d="M 2.5 387 L 3 389.5 L 2 389.5 L 2.5 387 Z " /><path fill="rgb(0,0,0)" stroke="rgb(0,0,0)" stroke-width="1" opacity="0.792156862745098" d="M 509.5 387 L 510 389.5 L 509 389.5 L 509.5 387 Z " /><path fill="rgb(0,0,0)" stroke="rgb(0,0,0)" stroke-width="1" opacity="0.792156862745098" d="M 46.5 419 L 47.5 421 L 46.5 419 Z " /><path fill="rgb(0,0,0)" stroke="rgb(0,0,0)" stroke-width="1" opacity="0.792156862745098" d="M 49.5 424 L 50.5 426 L 49.5 424 Z " /><path fill="rgb(0,0,0)" stroke="rgb(0,0,0)" stroke-width="1" opacity="0.792156862745098" d="M 462.5 424 L 461.5 426 L 462.5 424 Z " /><path fill="rgb(0,0,0)" stroke="rgb(0,0,0)" stroke-width="1" opacity="0.792156862745098" d="M 51.5 427 L 52.5 429 L 51.5 427 Z " /><path fill="rgb(0,0,0)" stroke="rgb(0,0,0)" stroke-width="1" opacity="0.792156862745098" d="M 460.5 427 L 459.5 429 L 460.5 427 Z " /><path fill="rgb(0,0,0)" stroke="rgb(0,0,0)" stroke-width="1" opacity="0.792156862745098" d="M 53.5 430 L 54.5 432 L 53.5 430 Z " /><path fill="rgb(0,0,0)" stroke="rgb(0,0,0)" stroke-width="1" opacity="0.792156862745098" d="M 458.5 430 L 457.5 432 L 458.5 430 Z " /><path fill="rgb(0,0,0)" stroke="rgb(0,0,0)" stroke-width="1" opacity="0.792156862745098" d="M 17.5 432 L 18.5 434 L 17.5 432 Z " /><path fill="rgb(0,0,0)" stroke="rgb(0,0,0)" stroke-width="1" opacity="0.792156862745098" d="M 494.5 432 L 493.5 434 L 494.5 432 Z " /><path fill="rgb(0,0,0)" stroke="rgb(0,0,0)" stroke-width="1" opacity="0.792156862745098" d="M 56.5 434 L 58.5 437 L 56.5 434 Z " /><path fill="rgb(0,0,0)" stroke="rgb(0,0,0)" stroke-width="1" opacity="0.792156862745098" d="M 455.5 434 L 453.5 437 L 455.5 434 Z " /><path fill="rgb(0,0,0)" stroke="rgb(0,0,0)" stroke-width="1" opacity="0.792156862745098" d="M 21.5 439 L 22.5 441 L 21.5 439 Z " /><path fill="rgb(0,0,0)" stroke="rgb(0,0,0)" stroke-width="1" opacity="0.792156862745098" d="M 490.5 439 L 489.5 441 L 490.5 439 Z " /><path fill="rgb(0,0,0)" stroke="rgb(0,0,0)" stroke-width="1" opacity="0.792156862745098" d="M 61.5 440 L 71.5 451 L 61.5 440 Z " /><path fill="rgb(0,0,0)" stroke="rgb(0,0,0)" stroke-width="1" opacity="0.792156862745098" d="M 450.5 440 L 440.5 451 L 450.5 440 Z " /><path fill="rgb(0,0,0)" stroke="rgb(0,0,0)" stroke-width="1" opacity="0.792156862745098" d="M 23.5 442 L 24.5 444 L 23.5 442 Z " /><path fill="rgb(0,0,0)" stroke="rgb(0,0,0)" stroke-width="1" opacity="0.792156862745098" d="M 488.5 442 L 487.5 444 L 488.5 442 Z " /><path fill="rgb(0,0,0)" stroke="rgb(0,0,0)" stroke-width="1" opacity="0.792156862745098" d="M 25.5 445 L 26.5 447 L 25.5 445 Z " /><path fill="rgb(0,0,0)" stroke="rgb(0,0,0)" stroke-width="1" opacity="0.792156862745098" d="M 486.5 445 L 485.5 447 L 486.5 445 Z " /><path fill="rgb(0,0,0)" stroke="rgb(0,0,0)" stroke-width="1" opacity="0.792156862745098" d="M 27.5 448 L 28.5 450 L 27.5 448 Z " /><path fill="rgb(0,0,0)" stroke="rgb(0,0,0)" stroke-width="1" opacity="0.792156862745098" d="M 484.5 448 L 483.5 450 L 484.5 448 Z " /><path fill="rgb(0,0,0)" stroke="rgb(0,0,0)" stroke-width="1" opacity="0.792156862745098" d="M 30.5 452 L 31.5 454 L 30.5 452 Z " /><path fill="rgb(0,0,0)" stroke="rgb(0,0,0)" stroke-width="1" opacity="0.792156862745098" d="M 481.5 452 L 480.5 454 L 481.5 452 Z " /><path fill="rgb(0,0,0)" stroke="rgb(0,0,0)" stroke-width="1" opacity="0.792156862745098" d="M 75.5 453 L 77.5 456 L 75.5 453 Z " /><path fill="rgb(0,0,0)" stroke="rgb(0,0,0)" stroke-width="1" opacity="0.792156862745098" d="M 436.5 453 L 434.5 456 L 436.5 453 Z " /><path fill="rgb(0,0,0)" stroke="rgb(0,0,0)" stroke-width="1" opacity="0.792156862745098" d="M 33.5 456 L 36.5 460 L 33.5 456 Z " /><path fill="rgb(0,0,0)" stroke="rgb(0,0,0)" stroke-width="1" opacity="0.792156862745098" d="M 478.5 456 L 475.5 460 L 478.5 456 Z " /><path fill="rgb(0,0,0)" stroke="rgb(0,0,0)" stroke-width="1" opacity="0.792156862745098" d="M 80.5 457 L 81.5 459 L 80.5 457 Z " /><path fill="rgb(0,0,0)" stroke="rgb(0,0,0)" stroke-width="1" opacity="0.792156862745098" d="M 431.5 457 L 430.5 459 L 431.5 457 Z " /><path fill="rgb(0,0,0)" stroke="rgb(0,0,0)" stroke-width="1" opacity="0.792156862745098" d="M 83.5 459 L 84.5 461 L 83.5 459 Z " /><path fill="rgb(0,0,0)" stroke="rgb(0,0,0)" stroke-width="1" opacity="0.792156862745098" d="M 428.5 459 L 427.5 461 L 428.5 459 Z " /><path fill="rgb(0,0,0)" stroke="rgb(0,0,0)" stroke-width="1" opacity="0.792156862745098" d="M 86.5 461 L 87.5 463 L 86.5 461 Z " /><path fill="rgb(0,0,0)" stroke="rgb(0,0,0)" stroke-width="1" opacity="0.792156862745098" d="M 425.5 461 L 424.5 463 L 425.5 461 Z " /><path fill="rgb(0,0,0)" stroke="rgb(0,0,0)" stroke-width="1" opacity="0.792156862745098" d="M 39.5 463 L 48.5 473 L 39.5 463 Z " /><path fill="rgb(0,0,0)" stroke="rgb(0,0,0)" stroke-width="1" opacity="0.792156862745098" d="M 472.5 463 L 463.5 473 L 472.5 463 Z " /><path fill="rgb(0,0,0)" stroke="rgb(0,0,0)" stroke-width="1" opacity="0.792156862745098" d="M 91.5 464 L 92.5 466 L 91.5 464 Z " /><path fill="rgb(0,0,0)" stroke="rgb(0,0,0)" stroke-width="1" opacity="0.792156862745098" d="M 52.5 475 L 55.5 479 L 52.5 475 Z " /><path fill="rgb(0,0,0)" stroke="rgb(0,0,0)" stroke-width="1" opacity="0.792156862745098" d="M 459.5 475 L 456.5 479 L 459.5 475 Z " /><path fill="rgb(0,0,0)" stroke="rgb(0,0,0)" stroke-width="1" opacity="0.792156862745098" d="M 129.5 478 L 132 478.5 L 129.5 479 L 129.5 478 Z " /><path fill="rgb(0,0,0)" stroke="rgb(0,0,0)" stroke-width="1" opacity="0.792156862745098" d="M 380.5 478 L 383 478.5 L 380.5 479 L 380.5 478 Z " /><path fill="rgb(0,0,0)" stroke="rgb(0,0,0)" stroke-width="1" opacity="0.792156862745098" d="M 136.5 479 L 141 479.5 L 136.5 480 L 136.5 479 Z " /><path fill="rgb(0,0,0)" stroke="rgb(0,0,0)" stroke-width="1" opacity="0.792156862745098" d="M 371.5 479 L 376 479.5 L 371.5 480 L 371.5 479 Z " /><path fill="rgb(0,0,0)" stroke="rgb(0,0,0)" stroke-width="1" opacity="0.792156862745098" d="M 58.5 480 L 59.5 482 L 58.5 480 Z " /><path fill="rgb(0,0,0)" stroke="rgb(0,0,0)" stroke-width="1" opacity="0.792156862745098" d="M 453.5 480 L 452.5 482 L 453.5 480 Z " /><path fill="rgb(0,0,0)" stroke="rgb(0,0,0)" stroke-width="1" opacity="0.792156862745098" d="M 62.5 483 L 63.5 485 L 62.5 483 Z " /><path fill="rgb(0,0,0)" stroke="rgb(0,0,0)" stroke-width="1" opacity="0.792156862745098" d="M 449.5 483 L 448.5 485 L 449.5 483 Z " /><path fill="rgb(0,0,0)" stroke="rgb(0,0,0)" stroke-width="1" opacity="0.792156862745098" d="M 65.5 485 L 66.5 487 L 65.5 485 Z " /><path fill="rgb(0,0,0)" stroke="rgb(0,0,0)" stroke-width="1" opacity="0.792156862745098" d="M 446.5 485 L 445.5 487 L 446.5 485 Z " /><path fill="rgb(0,0,0)" stroke="rgb(0,0,0)" stroke-width="1" opacity="0.792156862745098" d="M 68.5 487 L 69.5 489 L 68.5 487 Z " /><path fill="rgb(0,0,0)" stroke="rgb(0,0,0)" stroke-width="1" opacity="0.792156862745098" d="M 443.5 487 L 442.5 489 L 443.5 487 Z " /><path fill="rgb(0,0,0)" stroke="rgb(0,0,0)" stroke-width="1" opacity="0.792156862745098" d="M 71.5 489 L 72.5 491 L 71.5 489 Z " /><path fill="rgb(0,0,0)" stroke="rgb(0,0,0)" stroke-width="1" opacity="0.792156862745098" d="M 440.5 489 L 439.5 491 L 440.5 489 Z " /><path fill="rgb(0,0,0)" stroke="rgb(0,0,0)" stroke-width="1" opacity="0.792156862745098" d="M 78.5 493 L 79.5 495 L 78.5 493 Z " /><path fill="rgb(0,0,0)" stroke="rgb(0,0,0)" stroke-width="1" opacity="0.792156862745098" d="M 433.5 493 L 432.5 495 L 433.5 493 Z " /><path fill="rgb(0,0,0)" stroke="rgb(0,0,0)" stroke-width="1" opacity="0.792156862745098" d="M 425.5 497 L 427 497.5 L 423.5 499 L 423.5 498 L 425.5 497 Z " /><path fill="rgb(0,0,0)" stroke="rgb(0,0,0)" stroke-width="1" opacity="0.792156862745098" d="M 122.5 509 L 125 509.5 L 122.5 510 L 122.5 509 Z " /><path fill="rgb(0,0,0)" stroke="rgb(0,0,0)" stroke-width="1" opacity="0.792156862745098" d="M 387.5 509 L 390 509.5 L 387.5 510 L 387.5 509 Z " /><path fill="rgb(0,0,0)" stroke="rgb(0,0,0)" stroke-width="1" opacity="0.792156862745098" d="M 128.5 510 L 132 510.5 L 128.5 511 L 128.5 510 Z " /><path fill="rgb(0,0,0)" stroke="rgb(0,0,0)" stroke-width="1" opacity="0.792156862745098" d="M 380.5 510 L 384 510.5 L 380.5 511 L 380.5 510 Z " /><path fill="rgb(0,0,0)" stroke="rgb(0,0,0)" stroke-width="1" opacity="0.792156862745098" d="M 137.5 511 L 146 511.5 L 137.5 512 L 137.5 511 Z " /><path fill="rgb(0,0,0)" stroke="rgb(0,0,0)" stroke-width="1" opacity="0.792156862745098" d="M 366.5 511 L 375 511.5 L 366.5 512 L 366.5 511 Z " /><path fill="rgb(0,0,0)" stroke="rgb(0,0,0)" stroke-width="1" opacity="1" d="M 146.5 0 L 365.5 0 L 366.5 1 L 386.5 2 Q 412.1 6.4 431.5 17 Q 456.9 30.6 475 51.5 Q 488.6 66.9 498 86.5 L 507 111.5 L 511 132.5 L 511 145.5 L 512 146.5 L 512 365.5 L 511 366.5 L 511 379.5 L 510 380.5 L 509 392.5 L 503 413.5 L 497 427.5 Q 483 455.5 460.5 475 Q 445.8 487.8 427.5 497 L 407.5 505 L 379.5 511 L 366.5 511 L 365.5 512 L 146.5 512 L 145.5 511 L 132.5 511 L 131.5 510 L 119.5 509 L 104.5 505 L 86.5 498 Q 57.2 483.8 37 460.5 Q 23.4 445.1 14 425.5 L 5 400.5 L 1 379.5 L 1 366.5 L 0 365.5 L 0 146.5 L 1 145.5 L 1 132.5 L 2 131.5 L 3 119.5 L 7 104.5 L 14 86.5 Q 28.2 57.2 51.5 37 Q 71.4 19.4 98.5 9 L 119.5 3 L 131.5 2 L 132.5 1 L 145.5 1 L 146.5 0 Z M 136 32 L 117 36 L 101 42 Q 84 50 72 61 Q 40 87 32 136 L 32 377 L 36 396 L 42 412 Q 50 428 61 441 Q 74 456 93 466 L 117 476 L 137 480 L 376 480 L 396 476 L 412 470 Q 428 462 441 451 Q 456 437 467 418 L 476 396 L 480 376 L 480 137 L 476 117 L 470 101 Q 462 84 451 72 Q 437 56 418 45 L 396 36 L 376 32 L 136 32 Z " /><path fill="rgb(0,0,0)" stroke="rgb(0,0,0)" stroke-width="1" opacity="1" d="M 119.5 127 L 129.5 130 L 142.5 143 L 155.5 130 L 165.5 127 L 172.5 129 L 178 134.5 Q 181 138.5 180 146.5 L 178 151.5 L 165 165.5 L 178 178.5 Q 181 182.5 180 190.5 Q 178.2 197.7 172.5 201 L 162.5 203 L 155.5 200 L 142.5 187 L 129.5 200 L 122.5 203 L 118.5 203 Q 110.4 201.6 107 195.5 Q 104 191.5 105 183.5 L 107 178.5 L 120 164.5 L 107 151.5 Q 104 147.5 105 139.5 Q 106.8 132.3 112.5 129 L 119.5 127 Z " /><path fill="rgb(0,0,0)" stroke="rgb(0,0,0)" stroke-width="1" opacity="1" d="M 339.5 127 Q 346.5 127 350.5 130 L 362.5 142 L 364.5 142 L 377.5 129 L 386.5 127 Q 394.3 128.2 398 133.5 L 401 140.5 L 401 145.5 L 397 153.5 L 386 165.5 L 398 177.5 L 401 184.5 L 401 189.5 Q 399.5 196.5 394.5 200 L 387.5 203 L 383.5 203 L 377.5 201 L 363.5 187 L 351.5 199 Q 347.5 203 339.5 203 Q 332.8 201.8 329 197.5 L 326 192.5 L 325 186.5 L 327 179.5 L 341 164.5 L 328 151.5 Q 324.5 147.5 326 138.5 L 330 131 L 339.5 127 Z " /><path fill="rgb(0,0,0)" stroke="rgb(0,0,0)" stroke-width="1" opacity="1" d="M 251.5 287 L 278.5 289 L 304.5 297 Q 329.1 307.9 346 326.5 L 363 349.5 Q 367.3 354.7 368 363.5 L 366 370.5 L 360.5 376 Q 356.5 379.5 347.5 378 L 338 370.5 Q 329 350.5 312.5 338 Q 299.4 327.6 281.5 322 L 267.5 319 L 243.5 319 Q 204.1 326.6 184 353.5 L 174 370.5 L 168.5 376 Q 164.5 379.5 155.5 378 L 146 370.5 L 144 361.5 Q 153.7 336.2 172.5 320 Q 187.4 305.9 207.5 297 L 233.5 289 L 250.5 288 L 251.5 287 Z " /></svg>