<svg width="512" height="512" version="1.1" xmlns="http://www.w3.org/2000/svg" desc="Created with imagetracer.js version 1.2.6" ><path fill="rgb(0,0,0)" stroke="rgb(0,0,0)" stroke-width="1" opacity="0.8588235294117647" d="M 241.5 0 L 249 0.5 L 241.5 1 L 241.5 0 Z " /><path fill="rgb(0,0,0)" stroke="rgb(0,0,0)" stroke-width="1" opacity="0.8588235294117647" d="M 263.5 0 L 271 0.5 L 263.5 1 L 263.5 0 Z " /><path fill="rgb(0,0,0)" stroke="rgb(0,0,0)" stroke-width="1" opacity="0.8588235294117647" d="M 229.5 1 L 233 1.5 L 229.5 2 L 229.5 1 Z " /><path fill="rgb(0,0,0)" stroke="rgb(0,0,0)" stroke-width="1" opacity="0.8588235294117647" d="M 279.5 1 L 283 1.5 L 279.5 2 L 279.5 1 Z " /><path fill="rgb(0,0,0)" stroke="rgb(0,0,0)" stroke-width="1" opacity="0.8588235294117647" d="M 208.5 4 L 211 4.5 L 208.5 5 L 208.5 4 Z " /><path fill="rgb(0,0,0)" stroke="rgb(0,0,0)" stroke-width="1" opacity="0.8588235294117647" d="M 380.5 32 L 381.5 34 L 380.5 32 Z " /><path fill="rgb(0,0,0)" stroke="rgb(0,0,0)" stroke-width="1" opacity="0.8588235294117647" d="M 124.5 36 L 123.5 38 L 124.5 36 Z " /><path fill="rgb(0,0,0)" stroke="rgb(0,0,0)" stroke-width="1" opacity="0.8588235294117647" d="M 387.5 36 L 388.5 38 L 387.5 36 Z " /><path fill="rgb(0,0,0)" stroke="rgb(0,0,0)" stroke-width="1" opacity="0.8588235294117647" d="M 113.5 43 L 112.5 45 L 113.5 43 Z " /><path fill="rgb(0,0,0)" stroke="rgb(0,0,0)" stroke-width="1" opacity="0.8588235294117647" d="M 398.5 43 L 399.5 45 L 398.5 43 Z " /><path fill="rgb(0,0,0)" stroke="rgb(0,0,0)" stroke-width="1" opacity="0.8588235294117647" d="M 109.5 46 L 108.5 48 L 109.5 46 Z " /><path fill="rgb(0,0,0)" stroke="rgb(0,0,0)" stroke-width="1" opacity="0.8588235294117647" d="M 106.5 48 L 105.5 50 L 106.5 48 Z " /><path fill="rgb(0,0,0)" stroke="rgb(0,0,0)" stroke-width="1" opacity="0.8588235294117647" d="M 405.5 48 L 406.5 50 L 405.5 48 Z " /><path fill="rgb(0,0,0)" stroke="rgb(0,0,0)" stroke-width="1" opacity="0.8588235294117647" d="M 102.5 51 L 101.5 53 L 102.5 51 Z " /><path fill="rgb(0,0,0)" stroke="rgb(0,0,0)" stroke-width="1" opacity="0.8588235294117647" d="M 409.5 51 L 410.5 53 L 409.5 51 Z " /><path fill="rgb(0,0,0)" stroke="rgb(0,0,0)" stroke-width="1" opacity="0.8588235294117647" d="M 98.5 54 L 96.5 57 L 98.5 54 Z " /><path fill="rgb(0,0,0)" stroke="rgb(0,0,0)" stroke-width="1" opacity="0.8588235294117647" d="M 413.5 54 L 415.5 57 L 413.5 54 Z " /><path fill="rgb(0,0,0)" stroke="rgb(0,0,0)" stroke-width="1" opacity="0.8588235294117647" d="M 93.5 58 L 90.5 62 L 93.5 58 Z " /><path fill="rgb(0,0,0)" stroke="rgb(0,0,0)" stroke-width="1" opacity="0.8588235294117647" d="M 418.5 58 L 420.5 61 L 418.5 58 Z " /><path fill="rgb(0,0,0)" stroke="rgb(0,0,0)" stroke-width="1" opacity="0.8588235294117647" d="M 86.5 64 L 80.5 71 L 86.5 64 Z " /><path fill="rgb(0,0,0)" stroke="rgb(0,0,0)" stroke-width="1" opacity="0.8588235294117647" d="M 425.5 64 L 430.5 70 L 425.5 64 Z " /><path fill="rgb(0,0,0)" stroke="rgb(0,0,0)" stroke-width="1" opacity="0.8588235294117647" d="M 70.5 80 L 64.5 87 L 70.5 80 Z " /><path fill="rgb(0,0,0)" stroke="rgb(0,0,0)" stroke-width="1" opacity="0.8588235294117647" d="M 442.5 81 L 447.5 87 L 442.5 81 Z " /><path fill="rgb(0,0,0)" stroke="rgb(0,0,0)" stroke-width="1" opacity="0.8588235294117647" d="M 450.5 90 L 453.5 94 L 450.5 90 Z " /><path fill="rgb(0,0,0)" stroke="rgb(0,0,0)" stroke-width="1" opacity="0.8588235294117647" d="M 60.5 91 L 58.5 94 L 60.5 91 Z " /><path fill="rgb(0,0,0)" stroke="rgb(0,0,0)" stroke-width="1" opacity="0.8588235294117647" d="M 56.5 96 L 54.5 99 L 56.5 96 Z " /><path fill="rgb(0,0,0)" stroke="rgb(0,0,0)" stroke-width="1" opacity="0.8588235294117647" d="M 455.5 96 L 457.5 99 L 455.5 96 Z " /><path fill="rgb(0,0,0)" stroke="rgb(0,0,0)" stroke-width="1" opacity="0.8588235294117647" d="M 52.5 101 L 51.5 103 L 52.5 101 Z " /><path fill="rgb(0,0,0)" stroke="rgb(0,0,0)" stroke-width="1" opacity="0.8588235294117647" d="M 459.5 101 L 460.5 103 L 459.5 101 Z " /><path fill="rgb(0,0,0)" stroke="rgb(0,0,0)" stroke-width="1" opacity="0.8588235294117647" d="M 49.5 105 L 48.5 107 L 49.5 105 Z " /><path fill="rgb(0,0,0)" stroke="rgb(0,0,0)" stroke-width="1" opacity="0.8588235294117647" d="M 462.5 105 L 463.5 107 L 462.5 105 Z " /><path fill="rgb(0,0,0)" stroke="rgb(0,0,0)" stroke-width="1" opacity="0.8588235294117647" d="M 47.5 108 L 46.5 110 L 47.5 108 Z " /><path fill="rgb(0,0,0)" stroke="rgb(0,0,0)" stroke-width="1" opacity="0.8588235294117647" d="M 44.5 112 L 43.5 114 L 44.5 112 Z " /><path fill="rgb(0,0,0)" stroke="rgb(0,0,0)" stroke-width="1" opacity="0.8588235294117647" d="M 467.5 112 L 468.5 114 L 467.5 112 Z " /><path fill="rgb(0,0,0)" stroke="rgb(0,0,0)" stroke-width="1" opacity="0.8588235294117647" d="M 42.5 115 L 41.5 117 L 42.5 115 Z " /><path fill="rgb(0,0,0)" stroke="rgb(0,0,0)" stroke-width="1" opacity="0.8588235294117647" d="M 37.5 123 L 36.5 125 L 37.5 123 Z " /><path fill="rgb(0,0,0)" stroke="rgb(0,0,0)" stroke-width="1" opacity="0.8588235294117647" d="M 474.5 123 L 475.5 125 L 474.5 123 Z " /><path fill="rgb(0,0,0)" stroke="rgb(0,0,0)" stroke-width="1" opacity="0.8588235294117647" d="M 172.5 155 L 175 155.5 L 172.5 156 L 172.5 155 Z " /><path fill="rgb(0,0,0)" stroke="rgb(0,0,0)" stroke-width="1" opacity="0.8588235294117647" d="M 337.5 155 L 340 155.5 L 337.5 156 L 337.5 155 Z " /><path fill="rgb(0,0,0)" stroke="rgb(0,0,0)" stroke-width="1" opacity="0.8588235294117647" d="M 188.5 158 L 189.5 160 L 188.5 158 Z " /><path fill="rgb(0,0,0)" stroke="rgb(0,0,0)" stroke-width="1" opacity="0.8588235294117647" d="M 323.5 158 L 322.5 160 L 323.5 158 Z " /><path fill="rgb(0,0,0)" stroke="rgb(0,0,0)" stroke-width="1" opacity="0.8588235294117647" d="M 162.5 160 L 160.5 163 L 162.5 160 Z " /><path fill="rgb(0,0,0)" stroke="rgb(0,0,0)" stroke-width="1" opacity="0.8588235294117647" d="M 349.5 160 L 351.5 163 L 349.5 160 Z " /><path fill="rgb(0,0,0)" stroke="rgb(0,0,0)" stroke-width="1" opacity="0.8588235294117647" d="M 155.5 172 L 156 174.5 L 155 174.5 L 155.5 172 Z " /><path fill="rgb(0,0,0)" stroke="rgb(0,0,0)" stroke-width="1" opacity="0.8588235294117647" d="M 356.5 172 L 357 174.5 L 356 174.5 L 356.5 172 Z " /><path fill="rgb(0,0,0)" stroke="rgb(0,0,0)" stroke-width="1" opacity="0.8588235294117647" d="M 356.5 178 L 357 180.5 L 356 180.5 L 356.5 178 Z " /><path fill="rgb(0,0,0)" stroke="rgb(0,0,0)" stroke-width="1" opacity="0.8588235294117647" d="M 158.5 188 L 159.5 190 L 158.5 188 Z " /><path fill="rgb(0,0,0)" stroke="rgb(0,0,0)" stroke-width="1" opacity="0.8588235294117647" d="M 353.5 188 L 352.5 190 L 353.5 188 Z " /><path fill="rgb(0,0,0)" stroke="rgb(0,0,0)" stroke-width="1" opacity="0.8588235294117647" d="M 1.5 229 L 2 232.5 L 1 232.5 L 1.5 229 Z " /><path fill="rgb(0,0,0)" stroke="rgb(0,0,0)" stroke-width="1" opacity="0.8588235294117647" d="M 510.5 229 L 511 232.5 L 510 232.5 L 510.5 229 Z " /><path fill="rgb(0,0,0)" stroke="rgb(0,0,0)" stroke-width="1" opacity="0.8588235294117647" d="M 0.5 241 L 1 249.5 L 0 249.5 L 0.5 241 Z " /><path fill="rgb(0,0,0)" stroke="rgb(0,0,0)" stroke-width="1" opacity="0.8588235294117647" d="M 511.5 241 L 512 250.5 L 511 250.5 L 511.5 241 Z " /><path fill="rgb(0,0,0)" stroke="rgb(0,0,0)" stroke-width="1" opacity="0.8588235294117647" d="M 511.5 261 L 512 270.5 L 511 270.5 L 511.5 261 Z " /><path fill="rgb(0,0,0)" stroke="rgb(0,0,0)" stroke-width="1" opacity="0.8588235294117647" d="M 0.5 262 L 1 270.5 L 0 270.5 L 0.5 262 Z " /><path fill="rgb(0,0,0)" stroke="rgb(0,0,0)" stroke-width="1" opacity="0.8588235294117647" d="M 1.5 279 L 2 282.5 L 1 282.5 L 1.5 279 Z " /><path fill="rgb(0,0,0)" stroke="rgb(0,0,0)" stroke-width="1" opacity="0.8588235294117647" d="M 510.5 279 L 511 282.5 L 510 282.5 L 510.5 279 Z " /><path fill="rgb(0,0,0)" stroke="rgb(0,0,0)" stroke-width="1" opacity="0.8588235294117647" d="M 159.5 322 L 158.5 324 L 159.5 322 Z " /><path fill="rgb(0,0,0)" stroke="rgb(0,0,0)" stroke-width="1" opacity="0.8588235294117647" d="M 352.5 322 L 353.5 324 L 352.5 322 Z " /><path fill="rgb(0,0,0)" stroke="rgb(0,0,0)" stroke-width="1" opacity="0.8588235294117647" d="M 356.5 331 L 357 333.5 L 356 333.5 L 356.5 331 Z " /><path fill="rgb(0,0,0)" stroke="rgb(0,0,0)" stroke-width="1" opacity="0.8588235294117647" d="M 155.5 337 L 156 339.5 L 155 339.5 L 155.5 337 Z " /><path fill="rgb(0,0,0)" stroke="rgb(0,0,0)" stroke-width="1" opacity="0.8588235294117647" d="M 356.5 337 L 357 339.5 L 356 339.5 L 356.5 337 Z " /><path fill="rgb(0,0,0)" stroke="rgb(0,0,0)" stroke-width="1" opacity="0.8588235294117647" d="M 160.5 349 L 162.5 352 L 160.5 349 Z " /><path fill="rgb(0,0,0)" stroke="rgb(0,0,0)" stroke-width="1" opacity="0.8588235294117647" d="M 351.5 349 L 349.5 352 L 351.5 349 Z " /><path fill="rgb(0,0,0)" stroke="rgb(0,0,0)" stroke-width="1" opacity="0.8588235294117647" d="M 189.5 352 L 188.5 354 L 189.5 352 Z " /><path fill="rgb(0,0,0)" stroke="rgb(0,0,0)" stroke-width="1" opacity="0.8588235294117647" d="M 322.5 352 L 323.5 354 L 322.5 352 Z " /><path fill="rgb(0,0,0)" stroke="rgb(0,0,0)" stroke-width="1" opacity="0.8588235294117647" d="M 172.5 356 L 175 356.5 L 172.5 357 L 172.5 356 Z " /><path fill="rgb(0,0,0)" stroke="rgb(0,0,0)" stroke-width="1" opacity="0.8588235294117647" d="M 178.5 356 L 181 356.5 L 178.5 357 L 178.5 356 Z " /><path fill="rgb(0,0,0)" stroke="rgb(0,0,0)" stroke-width="1" opacity="0.8588235294117647" d="M 331.5 356 L 334 356.5 L 331.5 357 L 331.5 356 Z " /><path fill="rgb(0,0,0)" stroke="rgb(0,0,0)" stroke-width="1" opacity="0.8588235294117647" d="M 32.5 380 L 33.5 382 L 32.5 380 Z " /><path fill="rgb(0,0,0)" stroke="rgb(0,0,0)" stroke-width="1" opacity="0.8588235294117647" d="M 479.5 380 L 478.5 382 L 479.5 380 Z " /><path fill="rgb(0,0,0)" stroke="rgb(0,0,0)" stroke-width="1" opacity="0.8588235294117647" d="M 43.5 398 L 44.5 400 L 43.5 398 Z " /><path fill="rgb(0,0,0)" stroke="rgb(0,0,0)" stroke-width="1" opacity="0.8588235294117647" d="M 468.5 398 L 467.5 400 L 468.5 398 Z " /><path fill="rgb(0,0,0)" stroke="rgb(0,0,0)" stroke-width="1" opacity="0.8588235294117647" d="M 46.5 402 L 47.5 404 L 46.5 402 Z " /><path fill="rgb(0,0,0)" stroke="rgb(0,0,0)" stroke-width="1" opacity="0.8588235294117647" d="M 48.5 405 L 49.5 407 L 48.5 405 Z " /><path fill="rgb(0,0,0)" stroke="rgb(0,0,0)" stroke-width="1" opacity="0.8588235294117647" d="M 463.5 405 L 462.5 407 L 463.5 405 Z " /><path fill="rgb(0,0,0)" stroke="rgb(0,0,0)" stroke-width="1" opacity="0.8588235294117647" d="M 51.5 409 L 52.5 411 L 51.5 409 Z " /><path fill="rgb(0,0,0)" stroke="rgb(0,0,0)" stroke-width="1" opacity="0.8588235294117647" d="M 460.5 409 L 459.5 411 L 460.5 409 Z " /><path fill="rgb(0,0,0)" stroke="rgb(0,0,0)" stroke-width="1" opacity="0.8588235294117647" d="M 54.5 413 L 56.5 416 L 54.5 413 Z " /><path fill="rgb(0,0,0)" stroke="rgb(0,0,0)" stroke-width="1" opacity="0.8588235294117647" d="M 457.5 413 L 455.5 416 L 457.5 413 Z " /><path fill="rgb(0,0,0)" stroke="rgb(0,0,0)" stroke-width="1" opacity="0.8588235294117647" d="M 58.5 418 L 61.5 422 L 58.5 418 Z " /><path fill="rgb(0,0,0)" stroke="rgb(0,0,0)" stroke-width="1" opacity="0.8588235294117647" d="M 453.5 418 L 450.5 422 L 453.5 418 Z " /><path fill="rgb(0,0,0)" stroke="rgb(0,0,0)" stroke-width="1" opacity="0.8588235294117647" d="M 64.5 425 L 70.5 432 L 64.5 425 Z " /><path fill="rgb(0,0,0)" stroke="rgb(0,0,0)" stroke-width="1" opacity="0.8588235294117647" d="M 447.5 425 L 442.5 431 L 447.5 425 Z " /><path fill="rgb(0,0,0)" stroke="rgb(0,0,0)" stroke-width="1" opacity="0.8588235294117647" d="M 80.5 441 L 86.5 448 L 80.5 441 Z " /><path fill="rgb(0,0,0)" stroke="rgb(0,0,0)" stroke-width="1" opacity="0.8588235294117647" d="M 430.5 442 L 425.5 448 L 430.5 442 Z " /><path fill="rgb(0,0,0)" stroke="rgb(0,0,0)" stroke-width="1" opacity="0.8588235294117647" d="M 90.5 450 L 93.5 454 L 90.5 450 Z " /><path fill="rgb(0,0,0)" stroke="rgb(0,0,0)" stroke-width="1" opacity="0.8588235294117647" d="M 421.5 450 L 418.5 454 L 421.5 450 Z " /><path fill="rgb(0,0,0)" stroke="rgb(0,0,0)" stroke-width="1" opacity="0.8588235294117647" d="M 96.5 455 L 97.5 457 L 96.5 455 Z " /><path fill="rgb(0,0,0)" stroke="rgb(0,0,0)" stroke-width="1" opacity="0.8588235294117647" d="M 415.5 455 L 413.5 458 L 415.5 455 Z " /><path fill="rgb(0,0,0)" stroke="rgb(0,0,0)" stroke-width="1" opacity="0.8588235294117647" d="M 101.5 459 L 102.5 461 L 101.5 459 Z " /><path fill="rgb(0,0,0)" stroke="rgb(0,0,0)" stroke-width="1" opacity="0.8588235294117647" d="M 410.5 459 L 409.5 461 L 410.5 459 Z " /><path fill="rgb(0,0,0)" stroke="rgb(0,0,0)" stroke-width="1" opacity="0.8588235294117647" d="M 105.5 462 L 106.5 464 L 105.5 462 Z " /><path fill="rgb(0,0,0)" stroke="rgb(0,0,0)" stroke-width="1" opacity="0.8588235294117647" d="M 406.5 462 L 405.5 464 L 406.5 462 Z " /><path fill="rgb(0,0,0)" stroke="rgb(0,0,0)" stroke-width="1" opacity="0.8588235294117647" d="M 108.5 464 L 109.5 466 L 108.5 464 Z " /><path fill="rgb(0,0,0)" stroke="rgb(0,0,0)" stroke-width="1" opacity="0.8588235294117647" d="M 112.5 467 L 113.5 469 L 112.5 467 Z " /><path fill="rgb(0,0,0)" stroke="rgb(0,0,0)" stroke-width="1" opacity="0.8588235294117647" d="M 399.5 467 L 398.5 469 L 399.5 467 Z " /><path fill="rgb(0,0,0)" stroke="rgb(0,0,0)" stroke-width="1" opacity="0.8588235294117647" d="M 120.5 472 L 121.5 474 L 120.5 472 Z " /><path fill="rgb(0,0,0)" stroke="rgb(0,0,0)" stroke-width="1" opacity="0.8588235294117647" d="M 388.5 474 L 387.5 476 L 388.5 474 Z " /><path fill="rgb(0,0,0)" stroke="rgb(0,0,0)" stroke-width="1" opacity="0.8588235294117647" d="M 381.5 478 L 380.5 480 L 381.5 478 Z " /><path fill="rgb(0,0,0)" stroke="rgb(0,0,0)" stroke-width="1" opacity="0.8588235294117647" d="M 214.5 508 L 217 508.5 L 214.5 509 L 214.5 508 Z " /><path fill="rgb(0,0,0)" stroke="rgb(0,0,0)" stroke-width="1" opacity="0.8588235294117647" d="M 229.5 510 L 233 510.5 L 229.5 511 L 229.5 510 Z " /><path fill="rgb(0,0,0)" stroke="rgb(0,0,0)" stroke-width="1" opacity="0.8588235294117647" d="M 279.5 510 L 283 510.5 L 279.5 511 L 279.5 510 Z " /><path fill="rgb(0,0,0)" stroke="rgb(0,0,0)" stroke-width="1" opacity="0.8588235294117647" d="M 241.5 511 L 250 511.5 L 241.5 512 L 241.5 511 Z " /><path fill="rgb(0,0,0)" stroke="rgb(0,0,0)" stroke-width="1" opacity="0.8588235294117647" d="M 262.5 511 L 271 511.5 L 262.5 512 L 262.5 511 Z " /><path fill="rgb(0,0,0)" stroke="rgb(0,0,0)" stroke-width="1" opacity="1" d="M 249.5 0 L 278.5 1 L 279.5 2 L 288.5 2 L 289.5 3 L 301.5 4 L 333.5 12 L 357.5 21 Q 407.3 43.3 442 80.5 Q 475.6 115.4 495 164.5 L 503 188.5 L 508 210.5 L 509 222.5 L 510 223.5 L 510 232.5 L 511 233.5 L 512 260.5 L 511 261.5 L 510 288.5 L 509 289.5 L 507 306.5 L 500 333.5 L 490 359.5 Q 468 408 431.5 442 Q 396.6 475.6 347.5 495 L 319.5 504 L 301.5 508 L 289.5 509 L 288.5 510 L 279.5 510 L 278.5 511 L 250.5 512 L 249.5 511 L 223.5 510 L 196.5 505 L 172.5 498 L 152.5 490 Q 104.8 468.2 71 432.5 Q 36.7 397.3 17 347.5 L 9 323.5 L 4 301.5 L 3 289.5 L 2 288.5 L 2 279.5 L 1 278.5 L 0 250.5 L 1 249.5 L 2 223.5 L 3 222.5 L 5 205.5 L 12 178.5 L 21 154.5 Q 43 105.5 79.5 71 Q 111.4 40.4 154.5 21 L 178.5 12 L 205.5 5 L 210.5 5 L 223.5 2 L 248.5 1 L 249.5 0 Z M 173 155 L 163 160 Q 157 165 155 173 L 155 181 L 158 189 L 225 256 L 158 324 L 155 332 L 155 340 L 160 350 Q 165 355 173 357 L 181 357 L 189 354 L 256 287 L 324 354 L 332 357 Q 344 358 350 352 Q 355 347 357 340 L 357 332 L 354 324 L 287 257 L 354 189 L 357 181 L 357 173 L 352 163 Q 347 157 340 155 L 332 155 L 324 158 L 257 225 L 189 158 L 181 155 L 173 155 Z " /><path fill="rgb(0,0,0)" stroke="rgb(0,0,0)" stroke-width="1" opacity="0.24705882352941178" d="M 235.5 0 L 241 0.5 L 235.5 1 L 235.5 0 Z " /><path fill="rgb(0,0,0)" stroke="rgb(0,0,0)" stroke-width="1" opacity="0.24705882352941178" d="M 271.5 0 L 277 0.5 L 271.5 1 L 271.5 0 Z " /><path fill="rgb(0,0,0)" stroke="rgb(0,0,0)" stroke-width="1" opacity="0.24705882352941178" d="M 225.5 1 L 229 1.5 L 225.5 2 L 225.5 1 Z " /><path fill="rgb(0,0,0)" stroke="rgb(0,0,0)" stroke-width="1" opacity="0.24705882352941178" d="M 283.5 1 L 287 1.5 L 283.5 2 L 283.5 1 Z " /><path fill="rgb(0,0,0)" stroke="rgb(0,0,0)" stroke-width="1" opacity="0.24705882352941178" d="M 218.5 2 L 221 2.5 L 218.5 3 L 218.5 2 Z " /><path fill="rgb(0,0,0)" stroke="rgb(0,0,0)" stroke-width="1" opacity="0.24705882352941178" d="M 291.5 2 L 294 2.5 L 291.5 3 L 291.5 2 Z " /><path fill="rgb(0,0,0)" stroke="rgb(0,0,0)" stroke-width="1" opacity="0.24705882352941178" d="M 298.5 3 L 301 3.5 L 298.5 4 L 298.5 3 Z " /><path fill="rgb(0,0,0)" stroke="rgb(0,0,0)" stroke-width="1" opacity="0.24705882352941178" d="M 120.5 38 L 119.5 40 L 120.5 38 Z " /><path fill="rgb(0,0,0)" stroke="rgb(0,0,0)" stroke-width="1" opacity="0.24705882352941178" d="M 117.5 40 L 116.5 42 L 117.5 40 Z " /><path fill="rgb(0,0,0)" stroke="rgb(0,0,0)" stroke-width="1" opacity="0.24705882352941178" d="M 394.5 40 L 395.5 42 L 394.5 40 Z " /><path fill="rgb(0,0,0)" stroke="rgb(0,0,0)" stroke-width="1" opacity="0.24705882352941178" d="M 111.5 44 L 110.5 46 L 111.5 44 Z " /><path fill="rgb(0,0,0)" stroke="rgb(0,0,0)" stroke-width="1" opacity="0.24705882352941178" d="M 400.5 44 L 401.5 46 L 400.5 44 Z " /><path fill="rgb(0,0,0)" stroke="rgb(0,0,0)" stroke-width="1" opacity="0.24705882352941178" d="M 403.5 46 L 404.5 48 L 403.5 46 Z " /><path fill="rgb(0,0,0)" stroke="rgb(0,0,0)" stroke-width="1" opacity="0.24705882352941178" d="M 104.5 49 L 103.5 51 L 104.5 49 Z " /><path fill="rgb(0,0,0)" stroke="rgb(0,0,0)" stroke-width="1" opacity="0.24705882352941178" d="M 407.5 49 L 408.5 51 L 407.5 49 Z " /><path fill="rgb(0,0,0)" stroke="rgb(0,0,0)" stroke-width="1" opacity="0.24705882352941178" d="M 100.5 52 L 99.5 54 L 100.5 52 Z " /><path fill="rgb(0,0,0)" stroke="rgb(0,0,0)" stroke-width="1" opacity="0.24705882352941178" d="M 411.5 52 L 412.5 54 L 411.5 52 Z " /><path fill="rgb(0,0,0)" stroke="rgb(0,0,0)" stroke-width="1" opacity="0.24705882352941178" d="M 415.5 55 L 417.5 58 L 415.5 55 Z " /><path fill="rgb(0,0,0)" stroke="rgb(0,0,0)" stroke-width="1" opacity="0.24705882352941178" d="M 95.5 56 L 94.5 58 L 95.5 56 Z " /><path fill="rgb(0,0,0)" stroke="rgb(0,0,0)" stroke-width="1" opacity="0.24705882352941178" d="M 90.5 60 L 87.5 64 L 90.5 60 Z " /><path fill="rgb(0,0,0)" stroke="rgb(0,0,0)" stroke-width="1" opacity="0.24705882352941178" d="M 421.5 60 L 424.5 64 L 421.5 60 Z " /><path fill="rgb(0,0,0)" stroke="rgb(0,0,0)" stroke-width="1" opacity="0.24705882352941178" d="M 82.5 67 L 67.5 83 L 82.5 67 Z " /><path fill="rgb(0,0,0)" stroke="rgb(0,0,0)" stroke-width="1" opacity="0.24705882352941178" d="M 429.5 67 L 444.5 83 L 429.5 67 Z " /><path fill="rgb(0,0,0)" stroke="rgb(0,0,0)" stroke-width="1" opacity="0.24705882352941178" d="M 63.5 87 L 60.5 91 L 63.5 87 Z " /><path fill="rgb(0,0,0)" stroke="rgb(0,0,0)" stroke-width="1" opacity="0.24705882352941178" d="M 448.5 87 L 451.5 91 L 448.5 87 Z " /><path fill="rgb(0,0,0)" stroke="rgb(0,0,0)" stroke-width="1" opacity="0.24705882352941178" d="M 57.5 94 L 56.5 96 L 57.5 94 Z " /><path fill="rgb(0,0,0)" stroke="rgb(0,0,0)" stroke-width="1" opacity="0.24705882352941178" d="M 454.5 94 L 455.5 96 L 454.5 94 Z " /><path fill="rgb(0,0,0)" stroke="rgb(0,0,0)" stroke-width="1" opacity="0.24705882352941178" d="M 53.5 99 L 52.5 101 L 53.5 99 Z " /><path fill="rgb(0,0,0)" stroke="rgb(0,0,0)" stroke-width="1" opacity="0.24705882352941178" d="M 458.5 99 L 459.5 101 L 458.5 99 Z " /><path fill="rgb(0,0,0)" stroke="rgb(0,0,0)" stroke-width="1" opacity="0.24705882352941178" d="M 50.5 103 L 49.5 105 L 50.5 103 Z " /><path fill="rgb(0,0,0)" stroke="rgb(0,0,0)" stroke-width="1" opacity="0.24705882352941178" d="M 461.5 103 L 462.5 105 L 461.5 103 Z " /><path fill="rgb(0,0,0)" stroke="rgb(0,0,0)" stroke-width="1" opacity="0.24705882352941178" d="M 45.5 110 L 44.5 112 L 45.5 110 Z " /><path fill="rgb(0,0,0)" stroke="rgb(0,0,0)" stroke-width="1" opacity="0.24705882352941178" d="M 466.5 110 L 467.5 112 L 466.5 110 Z " /><path fill="rgb(0,0,0)" stroke="rgb(0,0,0)" stroke-width="1" opacity="0.24705882352941178" d="M 470.5 116 L 471.5 118 L 470.5 116 Z " /><path fill="rgb(0,0,0)" stroke="rgb(0,0,0)" stroke-width="1" opacity="0.24705882352941178" d="M 39.5 119 L 38.5 121 L 39.5 119 Z " /><path fill="rgb(0,0,0)" stroke="rgb(0,0,0)" stroke-width="1" opacity="0.24705882352941178" d="M 175.5 155 L 179 155.5 L 175.5 156 L 175.5 155 Z " /><path fill="rgb(0,0,0)" stroke="rgb(0,0,0)" stroke-width="1" opacity="0.24705882352941178" d="M 333.5 155 L 337 155.5 L 333.5 156 L 333.5 155 Z " /><path fill="rgb(0,0,0)" stroke="rgb(0,0,0)" stroke-width="1" opacity="0.24705882352941178" d="M 164.5 159 L 159.5 165 L 164.5 159 Z " /><path fill="rgb(0,0,0)" stroke="rgb(0,0,0)" stroke-width="1" opacity="0.24705882352941178" d="M 347.5 159 L 352.5 165 L 347.5 159 Z " /><path fill="rgb(0,0,0)" stroke="rgb(0,0,0)" stroke-width="1" opacity="0.24705882352941178" d="M 190.5 160 L 256.5 225 L 322 160.5 L 255.5 226 L 190.5 160 Z " /><path fill="rgb(0,0,0)" stroke="rgb(0,0,0)" stroke-width="1" opacity="0.24705882352941178" d="M 155.5 175 L 156 178.5 L 155 178.5 L 155.5 175 Z " /><path fill="rgb(0,0,0)" stroke="rgb(0,0,0)" stroke-width="1" opacity="0.24705882352941178" d="M 356.5 175 L 357 177.5 L 356 177.5 L 356.5 175 Z " /><path fill="rgb(0,0,0)" stroke="rgb(0,0,0)" stroke-width="1" opacity="0.24705882352941178" d="M 160.5 190 L 226 256.5 L 160 321.5 L 225 255.5 L 160.5 190 Z " /><path fill="rgb(0,0,0)" stroke="rgb(0,0,0)" stroke-width="1" opacity="0.24705882352941178" d="M 351.5 190 L 287 255.5 L 352 321.5 L 286 256.5 L 351.5 190 Z " /><path fill="rgb(0,0,0)" stroke="rgb(0,0,0)" stroke-width="1" opacity="0.24705882352941178" d="M 3.5 211 L 4 213.5 L 3 213.5 L 3.5 211 Z " /><path fill="rgb(0,0,0)" stroke="rgb(0,0,0)" stroke-width="1" opacity="0.24705882352941178" d="M 2.5 218 L 3 220.5 L 2 220.5 L 2.5 218 Z " /><path fill="rgb(0,0,0)" stroke="rgb(0,0,0)" stroke-width="1" opacity="0.24705882352941178" d="M 509.5 218 L 510 220.5 L 509 220.5 L 509.5 218 Z " /><path fill="rgb(0,0,0)" stroke="rgb(0,0,0)" stroke-width="1" opacity="0.24705882352941178" d="M 1.5 225 L 2 228.5 L 1 228.5 L 1.5 225 Z " /><path fill="rgb(0,0,0)" stroke="rgb(0,0,0)" stroke-width="1" opacity="0.24705882352941178" d="M 510.5 225 L 511 228.5 L 510 228.5 L 510.5 225 Z " /><path fill="rgb(0,0,0)" stroke="rgb(0,0,0)" stroke-width="1" opacity="0.24705882352941178" d="M 0.5 235 L 1 240.5 L 0 240.5 L 0.5 235 Z " /><path fill="rgb(0,0,0)" stroke="rgb(0,0,0)" stroke-width="1" opacity="0.24705882352941178" d="M 511.5 235 L 512 240.5 L 511 240.5 L 511.5 235 Z " /><path fill="rgb(0,0,0)" stroke="rgb(0,0,0)" stroke-width="1" opacity="0.24705882352941178" d="M 0.5 271 L 1 276.5 L 0 276.5 L 0.5 271 Z " /><path fill="rgb(0,0,0)" stroke="rgb(0,0,0)" stroke-width="1" opacity="0.24705882352941178" d="M 511.5 271 L 512 276.5 L 511 276.5 L 511.5 271 Z " /><path fill="rgb(0,0,0)" stroke="rgb(0,0,0)" stroke-width="1" opacity="0.24705882352941178" d="M 1.5 283 L 2 286.5 L 1 286.5 L 1.5 283 Z " /><path fill="rgb(0,0,0)" stroke="rgb(0,0,0)" stroke-width="1" opacity="0.24705882352941178" d="M 510.5 283 L 511 286.5 L 510 286.5 L 510.5 283 Z " /><path fill="rgb(0,0,0)" stroke="rgb(0,0,0)" stroke-width="1" opacity="0.24705882352941178" d="M 255.5 286 L 322 351.5 L 256.5 287 L 190.5 352 L 255.5 286 Z " /><path fill="rgb(0,0,0)" stroke="rgb(0,0,0)" stroke-width="1" opacity="0.24705882352941178" d="M 2.5 291 L 3 293.5 L 2 293.5 L 2.5 291 Z " /><path fill="rgb(0,0,0)" stroke="rgb(0,0,0)" stroke-width="1" opacity="0.24705882352941178" d="M 509.5 291 L 510 293.5 L 509 293.5 L 509.5 291 Z " /><path fill="rgb(0,0,0)" stroke="rgb(0,0,0)" stroke-width="1" opacity="0.24705882352941178" d="M 3.5 298 L 4 300.5 L 3 300.5 L 3.5 298 Z " /><path fill="rgb(0,0,0)" stroke="rgb(0,0,0)" stroke-width="1" opacity="0.24705882352941178" d="M 507.5 303 L 508 305.5 L 507 305.5 L 507.5 303 Z " /><path fill="rgb(0,0,0)" stroke="rgb(0,0,0)" stroke-width="1" opacity="0.24705882352941178" d="M 155.5 333 L 156 336.5 L 155 336.5 L 155.5 333 Z " /><path fill="rgb(0,0,0)" stroke="rgb(0,0,0)" stroke-width="1" opacity="0.24705882352941178" d="M 356.5 334 L 357 336.5 L 356 336.5 L 356.5 334 Z " /><path fill="rgb(0,0,0)" stroke="rgb(0,0,0)" stroke-width="1" opacity="0.24705882352941178" d="M 159.5 347 L 164.5 353 L 159.5 347 Z " /><path fill="rgb(0,0,0)" stroke="rgb(0,0,0)" stroke-width="1" opacity="0.24705882352941178" d="M 352.5 347 L 347.5 353 L 352.5 347 Z " /><path fill="rgb(0,0,0)" stroke="rgb(0,0,0)" stroke-width="1" opacity="0.24705882352941178" d="M 175.5 356 L 178 356.5 L 175.5 357 L 175.5 356 Z " /><path fill="rgb(0,0,0)" stroke="rgb(0,0,0)" stroke-width="1" opacity="0.24705882352941178" d="M 334.5 356 L 337 356.5 L 334.5 357 L 334.5 356 Z " /><path fill="rgb(0,0,0)" stroke="rgb(0,0,0)" stroke-width="1" opacity="0.24705882352941178" d="M 35.5 386 L 36.5 388 L 35.5 386 Z " /><path fill="rgb(0,0,0)" stroke="rgb(0,0,0)" stroke-width="1" opacity="0.24705882352941178" d="M 476.5 386 L 475.5 388 L 476.5 386 Z " /><path fill="rgb(0,0,0)" stroke="rgb(0,0,0)" stroke-width="1" opacity="0.24705882352941178" d="M 40.5 394 L 41.5 396 L 40.5 394 Z " /><path fill="rgb(0,0,0)" stroke="rgb(0,0,0)" stroke-width="1" opacity="0.24705882352941178" d="M 471.5 394 L 470.5 396 L 471.5 394 Z " /><path fill="rgb(0,0,0)" stroke="rgb(0,0,0)" stroke-width="1" opacity="0.24705882352941178" d="M 44.5 400 L 45.5 402 L 44.5 400 Z " /><path fill="rgb(0,0,0)" stroke="rgb(0,0,0)" stroke-width="1" opacity="0.24705882352941178" d="M 467.5 400 L 466.5 402 L 467.5 400 Z " /><path fill="rgb(0,0,0)" stroke="rgb(0,0,0)" stroke-width="1" opacity="0.24705882352941178" d="M 49.5 407 L 50.5 409 L 49.5 407 Z " /><path fill="rgb(0,0,0)" stroke="rgb(0,0,0)" stroke-width="1" opacity="0.24705882352941178" d="M 462.5 407 L 461.5 409 L 462.5 407 Z " /><path fill="rgb(0,0,0)" stroke="rgb(0,0,0)" stroke-width="1" opacity="0.24705882352941178" d="M 52.5 411 L 53.5 413 L 52.5 411 Z " /><path fill="rgb(0,0,0)" stroke="rgb(0,0,0)" stroke-width="1" opacity="0.24705882352941178" d="M 459.5 411 L 458.5 413 L 459.5 411 Z " /><path fill="rgb(0,0,0)" stroke="rgb(0,0,0)" stroke-width="1" opacity="0.24705882352941178" d="M 56.5 416 L 57.5 418 L 56.5 416 Z " /><path fill="rgb(0,0,0)" stroke="rgb(0,0,0)" stroke-width="1" opacity="0.24705882352941178" d="M 455.5 416 L 454.5 418 L 455.5 416 Z " /><path fill="rgb(0,0,0)" stroke="rgb(0,0,0)" stroke-width="1" opacity="0.24705882352941178" d="M 60.5 421 L 63.5 425 L 60.5 421 Z " /><path fill="rgb(0,0,0)" stroke="rgb(0,0,0)" stroke-width="1" opacity="0.24705882352941178" d="M 451.5 421 L 448.5 425 L 451.5 421 Z " /><path fill="rgb(0,0,0)" stroke="rgb(0,0,0)" stroke-width="1" opacity="0.24705882352941178" d="M 444.5 429 L 429.5 445 L 444.5 429 Z " /><path fill="rgb(0,0,0)" stroke="rgb(0,0,0)" stroke-width="1" opacity="0.24705882352941178" d="M 68.5 430 L 81.5 444 L 68.5 430 Z " /><path fill="rgb(0,0,0)" stroke="rgb(0,0,0)" stroke-width="1" opacity="0.24705882352941178" d="M 87.5 448 L 90.5 452 L 87.5 448 Z " /><path fill="rgb(0,0,0)" stroke="rgb(0,0,0)" stroke-width="1" opacity="0.24705882352941178" d="M 424.5 448 L 421.5 452 L 424.5 448 Z " /><path fill="rgb(0,0,0)" stroke="rgb(0,0,0)" stroke-width="1" opacity="0.24705882352941178" d="M 94.5 454 L 95.5 456 L 94.5 454 Z " /><path fill="rgb(0,0,0)" stroke="rgb(0,0,0)" stroke-width="1" opacity="0.24705882352941178" d="M 417.5 454 L 416.5 456 L 417.5 454 Z " /><path fill="rgb(0,0,0)" stroke="rgb(0,0,0)" stroke-width="1" opacity="0.24705882352941178" d="M 98.5 457 L 100.5 460 L 98.5 457 Z " /><path fill="rgb(0,0,0)" stroke="rgb(0,0,0)" stroke-width="1" opacity="0.24705882352941178" d="M 412.5 458 L 411.5 460 L 412.5 458 Z " /><path fill="rgb(0,0,0)" stroke="rgb(0,0,0)" stroke-width="1" opacity="0.24705882352941178" d="M 103.5 461 L 104.5 463 L 103.5 461 Z " /><path fill="rgb(0,0,0)" stroke="rgb(0,0,0)" stroke-width="1" opacity="0.24705882352941178" d="M 408.5 461 L 407.5 463 L 408.5 461 Z " /><path fill="rgb(0,0,0)" stroke="rgb(0,0,0)" stroke-width="1" opacity="0.24705882352941178" d="M 110.5 466 L 111.5 468 L 110.5 466 Z " /><path fill="rgb(0,0,0)" stroke="rgb(0,0,0)" stroke-width="1" opacity="0.24705882352941178" d="M 401.5 466 L 400.5 468 L 401.5 466 Z " /><path fill="rgb(0,0,0)" stroke="rgb(0,0,0)" stroke-width="1" opacity="0.24705882352941178" d="M 116.5 470 L 117.5 472 L 116.5 470 Z " /><path fill="rgb(0,0,0)" stroke="rgb(0,0,0)" stroke-width="1" opacity="0.24705882352941178" d="M 395.5 470 L 394.5 472 L 395.5 470 Z " /><path fill="rgb(0,0,0)" stroke="rgb(0,0,0)" stroke-width="1" opacity="0.24705882352941178" d="M 124.5 475 L 125.5 477 L 124.5 475 Z " /><path fill="rgb(0,0,0)" stroke="rgb(0,0,0)" stroke-width="1" opacity="0.24705882352941178" d="M 206.5 507 L 209 507.5 L 206.5 508 L 206.5 507 Z " /><path fill="rgb(0,0,0)" stroke="rgb(0,0,0)" stroke-width="1" opacity="0.24705882352941178" d="M 298.5 508 L 301 508.5 L 298.5 509 L 298.5 508 Z " /><path fill="rgb(0,0,0)" stroke="rgb(0,0,0)" stroke-width="1" opacity="0.24705882352941178" d="M 218.5 509 L 221 509.5 L 218.5 510 L 218.5 509 Z " /><path fill="rgb(0,0,0)" stroke="rgb(0,0,0)" stroke-width="1" opacity="0.24705882352941178" d="M 291.5 509 L 294 509.5 L 291.5 510 L 291.5 509 Z " /><path fill="rgb(0,0,0)" stroke="rgb(0,0,0)" stroke-width="1" opacity="0.24705882352941178" d="M 225.5 510 L 229 510.5 L 225.5 511 L 225.5 510 Z " /><path fill="rgb(0,0,0)" stroke="rgb(0,0,0)" stroke-width="1" opacity="0.24705882352941178" d="M 283.5 510 L 287 510.5 L 283.5 511 L 283.5 510 Z " /><path fill="rgb(0,0,0)" stroke="rgb(0,0,0)" stroke-width="1" opacity="0.24705882352941178" d="M 235.5 511 L 241 511.5 L 235.5 512 L 235.5 511 Z " /><path fill="rgb(0,0,0)" stroke="rgb(0,0,0)" stroke-width="1" opacity="0.24705882352941178" d="M 271.5 511 L 277 511.5 L 271.5 512 L 271.5 511 Z " /><path fill="rgb(0,0,0)" stroke="rgb(0,0,0)" stroke-width="1" opacity="0" d="M 0 0 L 235 0.5 L 201.5 5 L 185.5 9 L 152.5 21 Q 102.1 44.1 67 82.5 Q 39 112.5 21 152.5 L 9 185.5 L 5 201.5 L 0.5 235 L 0 0 Z " /><path fill="rgb(0,0,0)" stroke="rgb(0,0,0)" stroke-width="1" opacity="0" d="M 277.5 0 L 512 0 L 512 234.5 L 511 234.5 L 511 225.5 L 510 224.5 L 507 201.5 L 503 185.5 L 491 152.5 Q 467.9 102.1 429.5 67 Q 396.8 36.7 352.5 18 L 326.5 9 L 310.5 5 L 287.5 2 L 286.5 1 L 277.5 1 L 277.5 0 Z " /><path fill="rgb(0,0,0)" stroke="rgb(0,0,0)" stroke-width="1" opacity="0" d="M 172.5 156 Q 183.3 154.6 188.5 159 L 256.5 226 L 323.5 159 Q 328.6 154.6 339.5 156 Q 348.5 158.4 353 165.5 Q 357.4 170.7 356 181.5 L 353 188.5 L 286 256.5 L 353 323.5 Q 357.4 328.6 356 339.5 Q 353.5 348.5 346.5 353 Q 341.3 357.4 330.5 356 L 323.5 353 L 255.5 286 L 188.5 353 Q 183.4 357.4 172.5 356 Q 163.4 353.5 159 346.5 Q 154.6 341.3 156 330.5 L 159 323.5 L 226 255.5 L 159 188.5 Q 154.6 183.4 156 172.5 Q 158.4 163.4 165.5 159 L 172.5 156 Z " /><path fill="rgb(0,0,0)" stroke="rgb(0,0,0)" stroke-width="1" opacity="0" d="M 0.5 277 L 3 300.5 L 8 322.5 L 22 361.5 Q 44.6 409.9 81.5 444 Q 111.9 472.6 152.5 491 Q 175.1 500.9 201.5 507 L 235 511.5 L 0 512 L 0.5 277 Z " /><path fill="rgb(0,0,0)" stroke="rgb(0,0,0)" stroke-width="1" opacity="0" d="M 511.5 277 L 512 512 L 277 511.5 L 300.5 509 L 322.5 504 L 361.5 490 Q 410.6 467.1 445 429.5 Q 472.2 400.2 490 361.5 L 504 322.5 L 510 293.5 L 511.5 277 Z " /></svg>