<svg width="512" height="512" viewBox="0 0 512 512" xmlns="http://www.w3.org/2000/svg">
  <path fill="rgb(157,99,81)" d="M 221.5 368 L 257.5 368 L 258.5 369 L 272.5 369 L 273.5 370 L 275.5 370 Q 280.3 368.8 281.5 371 L 283.5 371 L 302.5 374 L 322.5 380 L 335.5 385 L 353 394 Q 351.9 396.7 354.5 396 Q 355.6 398.8 359 398 Q 357.9 400.7 360.5 400 L 378 414.5 L 399 440.5 L 400 451.5 Q 398.2 458.7 392.5 462 L 387.5 464 L 92.5 464 L 88.5 463 L 83 459 L 80 453.5 L 80 451.5 Q 78.3 445.3 81 443.5 Q 78.5 442 82 440.5 L 85 434 Q 87.7 435.1 87 432.5 L 91 426 Q 93.7 427.1 93 424.5 L 98 418 L 100 418 Q 98.9 415.3 101.5 416 L 105.5 411 L 112 407 Q 110.9 404.3 113.5 405 L 117 403 Q 115.9 400.3 118.5 401 L 127.5 394 L 148.5 383 L 150.5 383 L 156.5 380 L 173.5 376 L 180.5 373 L 182.5 373 L 205.5 369 L 220.5 369 L 221.5 368 Z"/>
</svg>

