<svg width="512" height="512" viewBox="0 0 512 512" xmlns="http://www.w3.org/2000/svg">
  <!-- extracted from provided source: main shapes only (2 leaves + stem + soil) -->
  <path fill="rgb(165,210,97)" d="M 410.5 64 L 421.5 64 L 422.5 65 L 424.5 65 L 430.5 65 L 437.5 67 L 448 72 Q 446.9 74.7 449.5 74 Q 456.4 79.1 460 87.5 L 464 104.5 L 464 117.5 L 462 125.5 L 462 127.5 L 456 153.5 L 444 180.5 Q 431.4 203.9 413.5 222 Q 411.3 221.3 412 223.5 L 391.5 239 L 374.5 247 L 354.5 252 L 332.5 252 L 312.5 247 L 305 242.5 Q 318 223.5 335.5 209 L 382 169.5 Q 385.8 164.8 384 154.5 L 377.5 146 Q 372.8 142.2 362.5 144 L 353.5 150 L 313.5 184 L 290 207.5 L 282.5 217 L 277 200.5 Q 278.5 195 276 193.5 L 276 173.5 L 279 158.5 L 287 139.5 Q 299 119.5 316.5 105 L 335.5 91 L 359.5 78 L 387.5 68 L 410.5 64 Z"/>
  <path fill="rgb(165,210,97)" d="M 91.5 96 L 93.5 97 L 94.5 96 L 105.5 96 L 131.5 101 L 151.5 108 L 173.5 119 L 196 134 Q 194.9 136.7 197.5 136 L 214 151.5 L 217 157 Q 219.7 155.9 219 158.5 Q 238.8 179.2 240 218.5 L 239 220.5 L 239 222.5 L 239 229.5 L 236 241.5 L 231 253.5 L 226.5 260 Q 202.6 215.9 166.5 184 L 152.5 172 L 146.5 170 L 141.5 170 Q 133.2 171.2 130 177.5 Q 126.2 182.2 128 192.5 L 133.5 200 Q 151.5 213.5 166 230.5 Q 185.2 252.3 199 279.5 L 194.5 282 L 183.5 284 L 161.5 284 L 160.5 283 L 149.5 282 L 137.5 278 L 113 264 Q 114.1 261.3 111.5 262 L 95 246.5 Q 74.5 223.5 62 192.5 L 53 161.5 Q 54.3 156.7 52 155.5 L 52 132.5 L 56 118.5 L 63.5 108 L 66.5 106 L 75.5 100 L 91.5 96 Z"/>
  <path fill="rgb(120,166,53)" d="M 363.5 144 L 372.5 144 L 382 151.5 Q 385.5 155.5 384 164.5 Q 380.7 172.7 373.5 177 L 333.5 210 L 316 227.5 L 295 254.5 L 287 267.5 L 286 272 Q 283.3 270.9 284 273.5 L 270 303.5 L 270 305.5 L 262 330.5 L 257 358.5 L 257 360.5 L 257 367.5 L 256.5 368 L 223 368 L 222 353.5 L 221 352.5 L 221 350.5 L 219 334.5 L 217 330.5 L 214 315.5 L 204 288 L 202 287.5 L 202 285.5 Q 181.7 241.3 147.5 211 L 131 196.5 Q 126.8 192.7 128 183.5 Q 129.8 176.3 135.5 173 Q 139.5 169.5 148.5 171 L 154.5 174 L 183 200.5 Q 200.8 219.2 215 241.5 L 226 260.5 L 240.5 292 Q 242.6 281.6 248 274.5 L 248 272.5 L 258 252.5 L 267 239.5 L 267 237 Q 269.7 238.1 269 235.5 L 281 218 Q 283.7 219.1 283 216.5 L 305.5 192 L 355.5 149 L 363.5 144 Z"/>
  <path fill="rgb(157,99,81)" d="M 221.5 368 L 257.5 368 L 258.5 369 L 272.5 369 L 273.5 370 L 275.5 370 Q 280.3 368.8 281.5 371 L 283.5 371 L 302.5 374 L 322.5 380 L 335.5 385 L 353 394 Q 351.9 396.7 354.5 396 Q 355.6 398.8 359 398 Q 357.9 400.7 360.5 400 L 378 414.5 L 399 440.5 L 400 451.5 Q 398.2 458.7 392.5 462 L 387.5 464 L 92.5 464 L 88.5 463 L 83 459 L 80 453.5 L 80 451.5 Q 78.3 445.3 81 443.5 Q 78.5 442 82 440.5 L 85 434 Q 87.7 435.1 87 432.5 L 91 426 Q 93.7 427.1 93 424.5 L 98 418 L 100 418 Q 98.9 415.3 101.5 416 L 105.5 411 L 112 407 Q 110.9 404.3 113.5 405 L 117 403 Q 115.9 400.3 118.5 401 L 127.5 394 L 148.5 383 L 150.5 383 L 156.5 380 L 173.5 376 L 180.5 373 L 182.5 373 L 205.5 369 L 220.5 369 L 221.5 368 Z"/>
</svg>

